<svg width="100" height="100" viewBox="0 0 100 100" fill="none" xmlns="http://www.w3.org/2000/svg">
<path d="M18.3203 22.3828C17.4023 22.5977 17.9883 22.5586 17.2266 22.6562C13.9648 23.3594 16.3867 23.9844 18.3203 22.3828ZM75.6836 23.6914C75.918 23.5352 76.7383 22.7344 74.1797 21.9531C74.3359 22.7539 73.6523 22.6758 73.6523 23.125C75.5469 24.8438 76.3281 27.832 78.75 28.457C79.2188 26.3086 76.6016 25.2539 75.6836 23.6914ZM16.582 21.7578C16.875 23.4961 18.1836 19.9219 18.2031 18.6523C17.6953 18.9453 17.1875 19.2383 16.6602 19.4727C17.8906 20.0977 16.8164 20.7617 15.4883 21.7578C12.793 25.1172 18.0078 19.1406 16.582 21.7578ZM50 0C22.3828 0 0 22.3828 0 50C0 77.5977 22.3828 100 50 100C77.6172 100 100 77.5977 100 50C100 22.3828 77.6172 0 50 0ZM51.3281 16.7578L51.5625 16.8359C50.625 18.0469 56.4453 21.582 52.2656 21.875C48.3594 22.9883 53.9062 20.8594 50.8789 21.2305C52.4805 19.0039 49.6094 18.9648 51.3281 16.7578ZM27.6172 19.9609C26.2109 18.7891 21.7969 21.5625 23.3398 20.8984C27.168 19.3945 23.5938 21.0547 24.4922 22.8516C23.6719 24.5508 24.2188 21.1719 22.1875 23.1836C20.7227 23.5156 17.1289 26.8359 17.5781 25.8203C17.4609 27.4023 13.3008 29.2773 12.7344 31.9141C11.3672 35.5664 12.4023 31.7773 12.1484 30.3516C10.1953 27.8711 6.64063 34.5508 7.69531 37.1875C9.47266 34.0625 9.33594 36.8555 8.04688 38.2422C9.35547 40.6445 6.85547 43.7695 9.33594 45.5469C10.4297 45.8008 12.6172 41.875 11.6602 45.957C12.3242 42.4219 13.4961 46.7969 15.3906 45.8203C15.5078 47.6758 16.6602 46.8164 16.9141 49.0625C20.0781 48.8281 22.9688 54.1797 19.1992 55.1953C19.7656 55.0391 20.8789 56.0352 22.168 55.2734C24.3555 57.0117 30.1172 57.2266 30.2734 61.5234C26.3086 63.418 29.2969 68.6133 25.8594 70.4688C21.9141 69.8828 24.5117 75.332 22.8516 74.707C23.5156 78.6328 18.8672 74.1992 20.6641 76.3672C23.9648 78.3984 19.2188 77.9883 20.7031 79.4727C19.043 79.1211 21.7383 82.5586 22.1875 83.8281C24.5703 87.6953 20.1367 82.9688 18.8281 81.6797C17.5781 79.1797 14.6289 74.3945 13.8086 70.4688C13.3398 64.7656 8.92578 60.9375 7.91016 55.3711C6.89453 52.2656 10.7031 47.2852 8.65234 45.5469C6.875 44.1602 7.59766 39.4141 6.54297 36.9141C9.17969 25.4883 17.5586 15.8594 27.6172 10.1562C26.582 10.918 33.5352 8.18359 32.7344 8.84766C32.5195 9.33594 36.7969 6.99219 39.375 6.64062C39.1016 6.67969 32.6758 8.98438 34.4531 8.67188C31.6992 10.0195 34.1797 9.25781 35.5469 8.57422C32.8125 10.5859 30.7031 10.0195 27.5977 11.7969C24.4727 12.6172 25.1172 15.8594 22.8906 17.4805C24.1992 17.7148 27.4805 14.1016 29.3945 12.832C33.7891 10.7031 27.168 16.6992 31.3477 14.1211C29.9414 15.4297 30.2344 17.5195 29.375 18.1055C28.9453 17.9883 31.0742 19.1211 27.6172 19.9609ZM34.4531 10.9766C34.0039 11.582 33.3789 12.8906 33.0078 12.0898C32.5 12.3438 32.3047 13.4375 31.3477 12.5586C31.9141 12.1484 32.5 11.1719 31.3867 11.7773C31.8945 11.2305 36.4258 9.6875 36.1719 9.10156C36.9727 8.59375 36.8945 8.33984 35.9766 8.65234C35.5078 8.49609 37.0898 7.16797 39.1992 6.99219C39.4922 6.99219 39.6094 7.1875 39.082 7.12891C35.8984 8.10547 37.2656 7.83203 39.4141 7.12891C38.5938 7.59766 38.0273 7.73438 37.8906 7.94922C40.0391 7.16797 37.7734 8.51562 38.2617 8.41797C37.6562 8.73047 38.3594 8.82812 37.1875 9.27734C37.4023 9.10156 35.2734 10.5469 36.543 10.1172C35.3125 11.2891 34.7656 11.3086 34.4531 10.9766ZM36.3281 13.7695C36.3672 11.8945 39.0625 10.7031 38.7305 10.6055C42.0508 9.04297 37.5781 10.6641 40.1953 9.25781C41.1719 9.16016 43.2422 6.03516 46.1133 5.83984C49.2773 4.88281 47.8125 5.89844 50.1562 5L49.6875 5.39062C49.2773 5.44922 49.7852 6.17188 48.3008 7.26562C48.1445 8.96484 45.4688 8.18359 46.7969 10C45.9375 8.76953 44.6484 9.96094 46.2695 10.0781C44.5312 11.4062 40.4883 11.6406 38.5547 13.8477C37.3047 15.6445 36.1523 15.0781 36.3281 13.7695ZM50.2148 20.0195C48.8867 23.2227 47.5977 19.5508 49.9414 18.9648C50.5273 19.2773 50.7617 19.375 50.2148 20.0195ZM45.2148 13.6133C44.8242 12.168 45.1367 12.9297 47.4609 12.2461C49.0625 13.3984 46.0352 14.1602 45.2148 13.6133ZM81.582 70.9375C79.7461 67.7734 83.8086 64.8438 85.1758 62.1875C85 65.293 84.6094 68.3594 81.582 70.9375ZM88.4961 34.7852C86.5039 34.9414 84.707 35.4102 82.9102 34.2773C78.7695 29.7461 83.6719 39.3945 85.0391 35.4492C89.9609 37.3242 84.9609 45.4102 81.8555 44.5703C80.1172 40.8203 77.9688 36.6992 74.1797 34.8633C77.0898 38.0859 78.5352 42.0508 81.6602 44.9609C81.875 49.0234 85.9961 43.4766 85.7422 46.6211C86.1328 52.0312 79.6289 55.2734 80.7617 60.7031C83.1836 65.6445 76.0938 66.543 76.8945 70.9766C74.043 74.1602 70.9961 78.457 65.8789 77.7734C65.8789 75.0781 64.5117 72.793 64.1992 70.0195C61.4258 66.5039 67.1289 62.7344 63.5938 59.0625C59.5117 58.1445 64.4336 52.5195 60.2344 53.0469C57.7148 50.5273 54.0234 52.9687 50.4102 52.9883C45.8789 53.418 41.2109 47.4219 43.2227 43.1836C41.6211 38.7695 48.3008 37.4805 48.4766 33.5938C51.6797 30.918 56.2305 31.25 60.5664 30.625C60.2539 33.7305 63.5352 33.75 66.0156 34.7852C67.4023 31.4258 71.7188 35.332 74.668 33.2031C75.6836 28.2422 71.7969 31.2305 69.5703 29.6484C66.875 25.7031 75.332 27.6172 74.4531 25.5469C71.1719 25.5273 73.0273 21.5039 70.7031 23.75C72.793 24.1211 70.332 25.7617 70.3906 23.8867C67.2266 22.9688 70.2734 27.4805 68.6719 27.9102C66.2305 26.8945 67.3828 29.0625 67.6367 29.3945C66.582 31.6797 65.293 26.0352 62.3047 26.1914C59.3359 23.4766 61.1328 27.4219 63.7109 28.0664C63.1641 28.2227 64.0234 30.4688 63.3398 29.5117C61.2109 26.582 57.168 24.6289 54.7656 28.2227C54.5117 31.582 47.6758 32.5391 48.7695 28.6133C47.168 24.5508 53.7305 28.4961 53.125 25.2539C48.9062 22.4609 54.2773 23.3594 55.7031 20.7422C58.9453 20.8398 55.8398 18.0859 57.3633 17.2852C57.207 20.2734 59.8438 19.707 61.9336 19.1406C61.4258 17.4219 63.1836 17.4805 62.1094 16.0547C66.9531 14.1211 58.418 16.9531 60.1367 12.7148C58.0469 11.2695 59.2578 15.8984 60.1367 16.3867C60.1953 17.8125 58.9844 19.5703 57.3242 16.582C54.9023 18.1641 55.1562 14.9805 55 15.3125C54.7266 14.082 56.8359 14.0234 56.8555 11.875C56.6797 10.5078 56.7188 9.78516 57.6953 9.70703C57.7734 9.90234 61.6992 9.96094 63.0859 11.582C59.2969 10.8203 62.5195 12.207 64.2188 12.9883C62.4023 11.5625 64.9414 12.9883 63.457 11.3672C64.043 11.4844 61.8359 9.14062 64.1016 11.1914C62.8711 9.72656 66.5039 10.1562 64.3555 9.0625C67.5 9.94141 65.6445 9.14062 63.7891 8.33984C58.6719 5.29297 72.832 12.4609 67.0508 9.27734C70.7422 10.0781 59.1602 6.42578 64.4336 8.02734C62.4219 7.14844 64.375 7.63672 66.1914 8.20312C62.9297 7.1875 58.0469 5.29297 58.2422 5.21484C59.375 5.29297 60.4883 5.54688 61.5625 5.85938C64.9023 6.85547 60.6055 5.625 61.5234 5.64453C73.0078 8.59375 83.0664 16.2891 89.1797 26.3477C90.6055 27.8516 94.4922 37.793 92.4609 33.3789C93.3789 36.8945 93.5156 40.6836 94.0039 44.2773C92.9883 43.1445 91.8555 38.9648 90.8789 36.6406C90.4688 37.5391 90 35.3711 88.4961 34.7852Z" fill="#FF4242"/>
</svg>
