<svg width="100" height="100" viewBox="0 0 100 100" fill="none" xmlns="http://www.w3.org/2000/svg">
<path d="M63.3928 64.2857C66.8428 64.2857 69.6428 67.0857 69.6428 70.5357V77.6857L69.6143 78.0714C68.5071 85.6678 61.6857 89.3178 50.2393 89.3178C38.8357 89.3178 31.9036 85.7107 30.4071 78.2036L30.3571 77.6786V70.5357C30.3571 67.0857 33.1571 64.2857 36.6071 64.2857H63.3928ZM65.1571 42.8571H86.6071C90.0571 42.8571 92.8571 45.6571 92.8571 49.1071V56.2571L92.8286 56.6428C91.7214 64.2393 84.9 67.8893 73.4536 67.8893L72.8536 67.8821C72.303 65.9248 71.1589 64.1864 69.579 62.9064C67.9991 61.6265 66.0611 60.8681 64.0321 60.7357L63.3928 60.7143H60.1C61.9662 59.2094 63.4714 57.3054 64.5048 55.1422C65.5382 52.979 66.0735 50.6116 66.0714 48.2143C66.0714 46.3357 65.75 44.5357 65.1571 42.8571ZM13.3929 42.8571H34.8428C34.25 44.5357 33.9286 46.3357 33.9286 48.2143C33.9286 52.9643 35.9929 57.2393 39.2714 60.1786L39.9 60.7143H36.6071C32.1 60.7143 28.3 63.75 27.1429 67.8928L27.025 67.8893C15.6214 67.8893 8.68928 64.2821 7.19285 56.775L7.14285 56.25V49.1071C7.14285 45.6571 9.94285 42.8571 13.3929 42.8571ZM50 35.7143C53.3152 35.7143 56.4946 37.0312 58.8388 39.3754C61.183 41.7196 62.5 44.8991 62.5 48.2143C62.5 51.5295 61.183 54.7089 58.8388 57.0531C56.4946 59.3973 53.3152 60.7143 50 60.7143C46.6848 60.7143 43.5054 59.3973 41.1612 57.0531C38.817 54.7089 37.5 51.5295 37.5 48.2143C37.5 44.8991 38.817 41.7196 41.1612 39.3754C43.5054 37.0312 46.6848 35.7143 50 35.7143ZM73.2143 14.2857C76.5295 14.2857 79.7089 15.6027 82.0531 17.9469C84.3973 20.2911 85.7143 23.4705 85.7143 26.7857C85.7143 30.1009 84.3973 33.2803 82.0531 35.6245C79.7089 37.9687 76.5295 39.2857 73.2143 39.2857C69.8991 39.2857 66.7196 37.9687 64.3754 35.6245C62.0312 33.2803 60.7143 30.1009 60.7143 26.7857C60.7143 23.4705 62.0312 20.2911 64.3754 17.9469C66.7196 15.6027 69.8991 14.2857 73.2143 14.2857ZM26.7857 14.2857C30.1009 14.2857 33.2803 15.6027 35.6245 17.9469C37.9687 20.2911 39.2857 23.4705 39.2857 26.7857C39.2857 30.1009 37.9687 33.2803 35.6245 35.6245C33.2803 37.9687 30.1009 39.2857 26.7857 39.2857C23.4705 39.2857 20.2911 37.9687 17.9469 35.6245C15.6027 33.2803 14.2857 30.1009 14.2857 26.7857C14.2857 23.4705 15.6027 20.2911 17.9469 17.9469C20.2911 15.6027 23.4705 14.2857 26.7857 14.2857Z" fill="#FF4242"/>
</svg>
