<svg width="100" height="100" viewBox="0 0 100 100" fill="none" xmlns="http://www.w3.org/2000/svg">
<path d="M39.5 14.4531C32.4434 11.0839 22.5801 9.43355 9.37501 9.37496C8.12964 9.35804 6.9087 9.72118 5.87501 10.416C5.02655 10.9895 4.33201 11.7627 3.85249 12.6676C3.37296 13.5725 3.12315 14.5813 3.12501 15.6054V71.4843C3.12501 75.2617 5.81251 78.1113 9.37501 78.1113C23.2559 78.1113 37.1797 79.4082 45.5195 87.291C45.6336 87.3993 45.777 87.4717 45.9319 87.4992C46.0868 87.5267 46.2464 87.5081 46.3908 87.4457C46.5352 87.3833 46.6581 87.2798 46.7442 87.1481C46.8303 87.0164 46.8758 86.8624 46.875 86.705V20.8632C46.8753 20.419 46.7803 19.9799 46.5963 19.5755C46.4124 19.1712 46.1437 18.8111 45.8086 18.5195C43.8983 16.8864 41.7763 15.5185 39.5 14.4531Z" fill="#FF4242"/>
<path d="M94.125 10.4101C93.0908 9.71708 91.8698 9.35596 90.625 9.37498C77.4199 9.43358 67.5566 11.0762 60.5 14.4531C58.2239 15.5166 56.1013 16.8818 54.1895 18.5117C53.8551 18.8038 53.5871 19.1641 53.4035 19.5683C53.2199 19.9726 53.1249 20.4115 53.125 20.8555V86.7012C53.1249 86.8523 53.1695 87.0002 53.2531 87.1261C53.3367 87.2521 53.4556 87.3505 53.595 87.4092C53.7343 87.4678 53.8879 87.4839 54.0364 87.4556C54.1849 87.4273 54.3217 87.3558 54.4297 87.25C59.4434 82.2695 68.2422 78.1055 90.6328 78.1074C92.2904 78.1074 93.8801 77.4489 95.0522 76.2768C96.2243 75.1047 96.8828 73.515 96.8828 71.8574V15.6074C96.8851 14.5813 96.6347 13.5704 96.1537 12.664C95.6727 11.7575 94.976 10.9835 94.125 10.4101Z" fill="#FF4242"/>
</svg>
