<svg width="551" height="428" viewBox="0 0 551 428" fill="none" xmlns="http://www.w3.org/2000/svg">
<g clip-path="url(#clip0)">
<rect width="551" height="428" transform="matrix(-1 0 0 1 551 0)" fill="white"/>
<path opacity="0.18" d="M308.791 61.9617C339.734 87.7655 364.561 120.557 397.451 143.758C427.848 165.213 464.524 178.097 490.68 204.537C513.002 227.113 525.509 257.586 525.482 289.33C525.454 321.075 512.895 351.526 490.534 374.063C459.264 405.581 413.013 417.446 368.692 419.793C324.371 422.141 279.887 416.299 235.547 418.683C193.593 420.939 151.82 430.548 109.956 427.345C68.0923 424.142 23.6986 404.435 7.13507 365.838C-11.1758 323.129 9.81073 275.07 24.281 230.905C35.2268 197.525 42.4542 163.038 45.8318 128.072C50.8554 75.7735 60.0836 3.14813 125.919 0.254759C192.378 -2.2605 257.449 19.6967 308.791 61.9617Z" fill="#FF4242"/>
<path d="M119.894 371.88C219.293 384.618 320.003 374.828 420.221 375.119C427.502 375.119 437.422 378.139 436.275 385.291C378.03 399.048 317.546 400.122 257.662 401.141L148.689 402.961C123.771 403.379 98.8349 403.798 74.0625 402.396C64.7978 401.869 55.2966 401.013 46.942 396.937C23.4801 385.473 35.111 370.387 55.3512 367.822C76.7381 365.128 98.6165 369.15 119.894 371.88Z" fill="url(#paint0_linear)"/>
<path d="M264.943 94.3893V364.073C264.943 375.737 254.605 385.164 241.863 385.145L118.529 384.963C105.788 384.963 95.4494 375.464 95.4494 363.818V94.1163C95.4494 82.4518 105.788 73.0075 118.529 73.0439L241.863 73.2258C254.605 73.244 264.943 82.7248 264.943 94.3893ZM253.185 94.5712C253.185 87.3833 246.814 81.542 238.951 81.542H221.569V83.1433C221.46 85.451 220.441 87.6216 218.736 89.1802C217.03 90.7388 214.776 91.5583 212.468 91.4595L146.159 91.3503C143.85 91.4394 141.599 90.614 139.895 89.0535C138.191 87.4931 137.172 85.3235 137.058 83.016V81.4146H119.112C111.248 81.4146 104.878 87.2195 104.878 94.4075V363.272C104.878 370.46 111.248 376.283 119.112 376.302L238.951 376.502C246.814 376.502 253.185 370.697 253.185 363.509V94.5712Z" fill="#FF4242"/>
<path d="M270.749 99.9213V369.623C270.749 381.288 260.411 390.714 247.67 390.696L124.317 390.495C111.576 390.495 101.237 381.015 101.237 369.35V99.6665C101.237 88.002 111.576 78.5576 124.317 78.5758L247.67 78.776C260.411 78.7942 270.749 88.275 270.749 99.9213ZM258.973 100.121C258.973 92.8425 252.621 87.0922 244.757 87.074H227.375V88.6753C227.266 90.9814 226.247 93.1503 224.541 94.706C222.835 96.2616 220.581 97.0771 218.274 96.9733H151.984C149.672 97.0622 147.418 96.2344 145.713 94.67C144.009 93.1057 142.992 90.9315 142.883 88.6208V87.0376H124.918C117.073 87.0376 110.702 92.8425 110.702 100.03V368.822C110.702 375.992 117.073 381.833 124.918 381.852L244.666 382.106C252.53 382.106 258.882 376.301 258.882 369.114L258.973 100.121Z" fill="white"/>
<path d="M258.973 100.049V369.041C258.973 376.32 252.621 382.052 244.757 382.034L124.9 381.852C117.055 381.852 110.684 375.992 110.684 368.822V99.8849C110.684 92.606 117.055 86.8738 124.9 86.892H142.865V88.4752C142.973 90.7859 143.991 92.9601 145.695 94.5245C147.4 96.0888 149.653 96.9167 151.965 96.8277H218.256C220.563 96.9315 222.817 96.1161 224.523 94.5604C226.229 93.0047 227.248 90.8358 227.357 88.5298V86.9284H244.666C252.621 87.0922 258.973 92.9335 258.973 100.049Z" stroke="url(#paint1_linear)" stroke-width="0.45" stroke-miterlimit="10"/>
<path d="M258.973 100.049V369.041C258.973 376.32 252.621 382.052 244.757 382.034L124.9 381.852C117.055 381.852 110.684 375.992 110.684 368.822V99.8849C110.684 92.606 117.055 86.8738 124.9 86.892H142.865V88.4752C142.973 90.7859 143.991 92.9601 145.695 94.5245C147.4 96.0888 149.653 96.9167 151.965 96.8277H218.256C220.563 96.9315 222.817 96.1161 224.523 94.5604C226.229 93.0047 227.248 90.8358 227.357 88.5298V86.9284H244.666C252.621 87.0922 258.973 92.9335 258.973 100.049Z" fill="#FF4242"/>
<path opacity="0.28" d="M128.085 169.708H234.474V195.694H128.085V169.708Z" fill="white"/>
<path opacity="0.28" d="M128.085 131.348H234.474V157.334H128.085V131.348Z" fill="white"/>
<path d="M180.742 183.92V185.576L124.536 226.447C124.536 226.447 123.498 236.073 121.987 237.22C119.623 238.439 117.141 239.415 114.579 240.131V246.519L101.165 255.817L96.9237 257.273V243.807L115.271 229.249L121.004 222.698L123.225 224.518L180.742 183.92Z" fill="url(#paint2_linear)"/>
<path d="M194.139 91.0774L171.368 91.041V89.1849L194.139 89.2213V91.0774Z" fill="url(#paint3_linear)"/>
<path d="M200.127 92.1464C198.76 92.1331 197.662 91.1039 197.674 89.8477C197.686 88.5915 198.805 87.584 200.172 87.5973C201.539 87.6107 202.637 88.6399 202.625 89.8961C202.612 91.1523 201.494 92.1598 200.127 92.1464Z" fill="url(#paint4_linear)"/>
<path d="M551 244.753C550.891 249.321 548.616 253.524 546.377 257.491C536.147 275.561 524.662 293.377 508.79 306.788C485.492 326.514 454.95 335.012 425.463 342.982C428.103 341.69 431.288 328.115 432.453 325.131C434.728 319.271 436.858 313.375 439.06 307.498C442.518 298.199 449.799 290.72 456.879 283.841C472.928 268.407 492.4 256.983 513.705 250.504C525.804 246.841 538.359 244.905 551 244.753Z" fill="#FF4242"/>
<path d="M551 244.753C550.891 249.321 548.616 253.524 546.377 257.491C536.147 275.561 524.662 293.377 508.79 306.788C485.492 326.514 454.95 335.012 425.463 342.982C428.103 341.69 431.288 328.115 432.453 325.131C434.728 319.271 436.858 313.375 439.06 307.498C442.518 298.199 449.799 290.72 456.879 283.841C472.928 268.407 492.4 256.983 513.705 250.504C525.804 246.841 538.359 244.905 551 244.753Z" fill="url(#paint5_linear)"/>
<path d="M435.638 254.871C438.041 238.057 440.516 220.988 447.287 205.411C454.058 189.834 465.798 175.64 481.725 169.708C482.174 193.801 482.635 217.894 483.108 241.987C483.363 255.908 483.599 270.084 479.613 283.423C472.624 306.77 448.306 334.193 424.863 341.909C421.386 330.681 427.211 313.685 428.867 302.02L435.638 254.871Z" fill="#FF4242"/>
<path d="M435.638 254.871C438.041 238.057 440.516 220.988 447.287 205.411C454.058 189.834 465.798 175.64 481.725 169.708C482.174 193.801 482.635 217.894 483.108 241.987C483.363 255.908 483.599 270.084 479.613 283.423C472.624 306.77 448.306 334.193 424.863 341.909C421.386 330.681 427.211 313.685 428.867 302.02L435.638 254.871Z" fill="url(#paint6_linear)"/>
<path d="M344.939 220.551C345.758 220.551 346.268 219.678 346.468 218.877C346.54 218.059 346.886 217.289 347.451 216.693C347.779 216.438 348.252 216.275 348.379 215.874C348.425 215.695 348.425 215.508 348.379 215.328C348.154 214.402 347.728 213.537 347.13 212.795C346.532 212.053 345.778 211.451 344.921 211.034C344.047 211.798 342.719 211.78 341.881 212.581C341.001 213.569 340.321 214.718 339.879 215.965L331.725 235.327L329.177 241.369C328.197 243.297 327.644 245.413 327.557 247.574C327.527 248.657 327.838 249.722 328.445 250.62C329.053 251.517 329.926 252.202 330.942 252.578C331.641 252.73 332.365 252.723 333.06 252.56C333.756 252.396 334.407 252.079 334.965 251.632C336.077 250.719 336.961 249.56 337.549 248.247C339.661 243.989 339.97 239.149 340.607 234.363C341.244 229.577 341.699 224.045 344.939 220.551Z" fill="#FFBBAB"/>
<path d="M345.722 235.764C345.921 235.603 346.152 235.485 346.4 235.419C346.648 235.353 346.907 235.341 347.16 235.382C347.426 235.479 347.659 235.649 347.833 235.873C348.709 236.9 349.33 238.12 349.646 239.432C349.962 240.744 349.965 242.112 349.653 243.425C349.463 244.567 348.945 245.629 348.161 246.482C347.296 247.24 346.287 247.815 345.194 248.174L336.421 251.668C335.757 252.003 335.013 252.142 334.273 252.069C333.888 251.959 333.529 251.773 333.217 251.523C332.904 251.273 332.645 250.964 332.453 250.613C331.898 249.733 331.546 248.742 331.42 247.71C331.294 246.678 331.398 245.631 331.725 244.644C333.363 239.531 341.517 238.239 345.722 235.764Z" fill="#FFBBAB"/>
<path d="M354.896 224.009L347.924 230.632L342.846 235.455C341.699 236.546 340.243 237.529 339.77 239.094C339.187 241.302 339.393 243.645 340.352 245.718C341.435 247.92 342.236 250.249 342.737 252.651C342.737 251.778 345.522 249.758 346.141 249.266C347.487 248.211 348.907 247.283 350.254 246.246C351.601 245.208 353.276 244.135 353.749 242.788C353.885 241.922 353.927 241.043 353.876 240.168L354.768 226.156L354.896 224.009Z" fill="#FF4242"/>
<path d="M354.896 224.009L347.924 230.632L342.846 235.455C341.699 236.546 340.243 237.529 339.77 239.094C339.187 241.302 339.393 243.645 340.352 245.718C341.435 247.92 342.236 250.249 342.737 252.651C342.737 251.778 345.522 249.758 346.141 249.266C347.487 248.211 348.907 247.283 350.254 246.246C351.601 245.208 353.276 244.135 353.749 242.788C353.885 241.922 353.927 241.043 353.876 240.168L354.768 226.156L354.896 224.009Z" fill="url(#paint7_linear)"/>
<path d="M255.114 309.536C256.778 311.191 258.097 313.159 258.997 315.327C259.896 317.494 260.358 319.818 260.356 322.165C260.372 324.672 259.85 327.154 258.827 329.444C257.751 331.9 256.136 334.081 254.1 335.827C252.064 337.572 249.661 338.836 247.069 339.525V343.619H462.322C467.883 343.457 473.163 341.134 477.04 337.144C480.916 333.153 483.085 327.809 483.085 322.246C483.085 316.684 480.916 311.34 477.04 307.349C473.163 303.359 467.883 301.036 462.322 300.874H247.069V304.968C250.107 305.755 252.882 307.331 255.114 309.536Z" fill="#FF4242"/>
<path d="M247.069 339.452V343.546H462.322C466.799 343.553 471.166 342.15 474.801 339.537C478.437 336.924 481.159 333.234 482.58 328.989C474.408 330.426 422.642 338.67 393.829 322.237L258.827 329.516C257.734 331.945 256.11 334.098 254.076 335.818C252.041 337.537 249.647 338.779 247.069 339.452Z" fill="url(#paint8_linear)"/>
<path d="M255.114 309.536C257.338 311.755 258.936 314.522 259.749 317.557C260.562 320.591 260.561 323.786 259.745 326.82C258.929 329.854 257.328 332.619 255.102 334.836C252.877 337.054 250.106 338.646 247.069 339.452V340.053H375.937C380.677 340.053 385.223 338.17 388.575 334.819C391.928 331.467 393.811 326.922 393.811 322.183C393.811 317.443 391.928 312.898 388.575 309.547C385.223 306.196 380.677 304.313 375.937 304.313H247.069V304.895C250.114 305.703 252.89 307.304 255.114 309.536Z" fill="white"/>
<path d="M280.105 333.993C279.336 334.323 278.502 334.473 277.666 334.43L264.925 334.739C264.581 334.758 264.237 334.721 263.906 334.63C263.535 334.441 263.233 334.141 263.04 333.773C262.848 333.405 262.775 332.985 262.832 332.573C263.005 331.492 263.516 330.493 264.29 329.719C265.065 328.945 266.064 328.434 267.145 328.261C269.308 327.935 271.494 327.802 273.68 327.86C274.567 327.859 275.442 327.651 276.235 327.253C277.028 326.855 277.717 326.278 278.248 325.568C279.25 324.312 280.451 323.02 282.107 324.221C284.71 326.204 282.58 332.664 280.105 333.993Z" fill="#FFBBAB"/>
<path d="M344.011 276.38C344.011 276.38 308.427 275.27 299.581 278.982C290.735 282.695 276.993 325.422 276.993 325.422L284.419 328.261C284.419 328.261 297.051 301.656 301.201 299.272C305.351 296.889 349.817 288.154 349.817 288.154C349.817 288.154 353.221 285.552 344.011 276.38Z" fill="#473F47"/>
<path d="M344.011 276.38C344.011 276.38 308.427 275.27 299.581 278.982C290.735 282.695 276.993 325.422 276.993 325.422L284.419 328.261C284.419 328.261 297.051 301.656 301.201 299.272C305.351 296.889 349.817 288.154 349.817 288.154C349.817 288.154 353.221 285.552 344.011 276.38Z" fill="url(#paint9_linear)"/>
<path d="M255.114 352.263C256.79 353.932 258.116 355.918 259.016 358.105C259.916 360.292 260.372 362.636 260.356 365.001C260.359 367.478 259.838 369.928 258.827 372.189C257.755 374.647 256.14 376.831 254.104 378.577C252.067 380.323 249.663 381.585 247.069 382.27V386.365H462.322C465.128 386.365 467.906 385.812 470.499 384.738C473.092 383.665 475.447 382.091 477.432 380.107C479.416 378.124 480.99 375.768 482.064 373.176C483.138 370.585 483.69 367.807 483.69 365.001C483.69 362.196 483.138 359.417 482.064 356.826C480.99 354.234 479.416 351.878 477.432 349.895C475.447 347.911 473.092 346.337 470.499 345.264C467.906 344.19 465.128 343.637 462.322 343.637H247.069V347.714C250.102 348.503 252.875 350.071 255.114 352.263Z" fill="#FF4242"/>
<path d="M247.069 382.106V386.201H462.322C466.799 386.207 471.166 384.804 474.801 382.191C478.437 379.579 481.159 375.888 482.58 371.643C474.408 373.081 422.642 381.324 393.829 364.91L258.827 372.098C257.746 374.543 256.127 376.712 254.092 378.445C252.056 380.178 249.655 381.429 247.069 382.106Z" fill="url(#paint10_linear)"/>
<path d="M255.114 352.263C257.319 354.484 258.902 357.246 259.704 360.271C260.506 363.296 260.5 366.478 259.685 369.5C258.87 372.522 257.276 375.277 255.062 377.489C252.848 379.701 250.092 381.294 247.069 382.106V382.707H375.937C380.677 382.707 385.223 380.824 388.575 377.473C391.928 374.122 393.811 369.577 393.811 364.837C393.811 360.098 391.928 355.553 388.575 352.201C385.223 348.85 380.677 346.967 375.937 346.967H247.069V347.55C250.119 348.386 252.894 350.011 255.114 352.263Z" fill="white"/>
<path d="M289.861 346.476C289.162 346.474 288.468 346.584 287.804 346.804C287.473 346.913 287.181 347.115 286.961 347.386C286.742 347.657 286.605 347.986 286.567 348.332C286.592 348.674 286.702 349.004 286.886 349.293C287.07 349.582 287.323 349.821 287.622 349.988C288.205 350.352 288.86 350.571 289.442 350.953C289.927 351.359 290.444 351.724 290.99 352.045C291.972 352.329 293.02 352.285 293.975 351.917C298.435 350.842 303.048 350.553 307.608 351.062C308.055 351.116 308.507 351.116 308.955 351.062C309.601 350.874 310.189 350.525 310.664 350.048C311.138 349.57 311.483 348.98 311.667 348.332C312.58 345.554 312.854 342.606 312.468 339.707C312.465 339.389 312.384 339.076 312.231 338.797C312.059 338.563 311.826 338.38 311.557 338.269C307.225 336.122 304.859 340.398 301.692 342.473C298.169 344.823 294.088 346.204 289.861 346.476Z" fill="#FFBBAB"/>
<path d="M368.146 278.6C368.146 278.6 369.22 294.76 354.786 299.636C344.775 303.003 333.272 302.384 322.915 301.456C321.095 301.292 319.093 300.856 317.236 300.874C313.596 300.874 314.342 303.276 314.379 306.333C314.379 314.073 314.445 321.807 314.579 329.535C314.912 333.59 314.333 337.669 312.886 341.472L302.238 338.633C302.525 327.432 301.879 316.226 300.309 305.132C299.617 300.328 298.58 294.323 301.801 290.228C304.931 286.563 309.061 283.888 313.687 282.531L342.518 273.432L368.146 278.6Z" fill="#473F47"/>
<path d="M347.378 204.41C346.85 205.302 345.758 205.829 345.394 206.83C345.03 207.831 345.795 209.232 346.232 210.47C346.814 212.126 346.632 213.982 347.214 215.656C347.314 216.02 347.517 216.349 347.797 216.602C348.068 216.776 348.371 216.894 348.689 216.948C349.921 217.203 351.185 217.276 352.438 217.166C352.674 217.083 352.931 217.083 353.166 217.166C353.348 217.333 353.464 217.559 353.494 217.803C354.221 220.959 354.171 224.243 353.348 227.375C353.075 228.394 352.784 229.668 353.549 230.396C353.813 230.654 354.149 230.825 354.513 230.887C356.898 231.469 359.191 229.704 360.811 227.866C362.235 226.196 363.457 224.364 364.451 222.407C364.776 221.846 364.992 221.229 365.088 220.587C365.133 219.824 365.035 219.058 364.797 218.331C364.121 215.722 363.706 213.052 363.56 210.361C363.378 206.921 363.56 203.336 362.322 200.152C361.926 199.06 361.193 198.123 360.229 197.477C359.092 196.951 357.834 196.743 356.588 196.876C354.064 196.71 351.573 197.525 349.635 199.151C349.071 199.752 348.052 203.3 347.378 204.41Z" fill="#FFBBAB"/>
<path d="M344.011 276.38C345.624 277.787 347.525 278.824 349.581 279.419C351.037 279.929 352.529 280.402 354.04 280.875C356.181 281.519 358.274 282.316 360.301 283.259C362.449 283.969 364.051 284.496 365.27 284.86C366.369 285.25 367.487 285.584 368.62 285.861C368.508 285.798 368.393 285.743 368.274 285.697C368.274 285.697 369.002 282.476 370.094 277.963C371.914 269.666 374.972 257.055 376.446 252.342C377.141 249.361 377.32 246.284 376.974 243.243C376.228 233.235 372.26 220.169 364.979 221.006C364.979 221.006 354.677 226.338 351.565 230.487C348.725 234.326 344.939 237.22 344.903 242.406C344.812 249.685 347.851 256.509 347.269 264.043C347.259 265.141 346.984 266.221 346.468 267.191C345.594 268.555 343.865 269.211 343.01 270.575C342.527 271.521 342.363 272.598 342.544 273.644C342.724 274.691 343.239 275.651 344.011 276.38Z" fill="#FF4242"/>
<path d="M355.405 274.943C354.194 276.667 353.704 278.795 354.04 280.875C354.215 281.577 354.595 282.21 355.132 282.695C356.005 283.344 357.023 283.769 358.099 283.932C360.454 284.469 362.856 284.78 365.27 284.86C366.126 284.86 366.981 284.86 367.837 284.86C367.91 282.389 368.672 279.987 370.039 277.927C371.859 269.629 374.917 257.018 376.392 252.305C377.087 249.325 377.265 246.247 376.92 243.207C375.697 241.672 374.681 239.984 373.898 238.184C373.352 236.765 372.442 235.218 370.913 235.109C369.384 235 368.492 236.128 367.655 237.183C362.449 243.825 358.645 252.032 354.076 259.166C353.841 259.468 353.707 259.838 353.694 260.221C353.799 260.621 354.053 260.967 354.404 261.186C356.37 262.823 358.463 264.825 358.681 267.336C358.9 269.847 356.898 272.559 355.405 274.943Z" fill="url(#paint11_linear)"/>
<path d="M360.611 266.845C360.28 267.829 359.788 268.752 359.155 269.574C357.475 271.194 355.245 272.117 352.912 272.158C350.239 272.434 347.554 272.574 344.866 272.577C343.046 272.577 340.17 271.704 338.641 273.159C338.277 273.523 338.004 273.96 337.622 274.306C336.615 275.079 335.356 275.449 334.091 275.343C331.333 275.393 328.584 275.025 325.937 274.251C325.825 274.242 325.718 274.203 325.626 274.138C325.535 274.073 325.463 273.985 325.418 273.882C325.373 273.779 325.357 273.666 325.371 273.555C325.386 273.443 325.43 273.338 325.5 273.25C326.039 271.656 326.838 270.161 327.866 268.828C328.384 268.166 329.043 267.628 329.796 267.253C330.549 266.879 331.376 266.677 332.216 266.663C333.087 266.764 333.946 266.947 334.783 267.209C337.326 267.578 339.919 267.404 342.391 266.699C345.272 266.308 348.049 265.356 350.564 263.897C351.255 263.329 351.819 262.622 352.22 261.822C353.366 259.662 354.281 257.387 354.95 255.035C355.223 254.125 355.624 253.088 356.534 252.778C356.868 252.704 357.214 252.696 357.551 252.755C357.888 252.815 358.211 252.94 358.499 253.124C360.734 254.146 362.502 255.972 363.45 258.238C364.124 260.567 361.539 264.57 360.611 266.845Z" fill="#FFBBAB"/>
<path d="M360.938 234.527C360.938 234.527 354.441 252.105 353.166 253.397C351.892 254.689 365.689 262.496 365.689 262.496C365.689 262.496 374.681 245.39 374.262 237.984C373.843 230.578 366.017 227.539 360.938 234.527Z" fill="#FF4242"/>
<path d="M350.691 198.878C350.897 200.571 351.704 202.134 352.966 203.282C354.186 204.428 355.696 205.193 356.952 206.303C357.624 206.797 358.16 207.454 358.51 208.211C358.86 208.968 359.013 209.801 358.955 210.634C359.442 210.442 359.982 210.426 360.48 210.589C360.978 210.752 361.404 211.083 361.685 211.525C361.803 211.827 361.838 212.155 361.787 212.475C361.735 212.795 361.6 213.095 361.394 213.345C361.168 213.602 360.887 213.804 360.571 213.937C360.256 214.069 359.915 214.128 359.573 214.109C360.879 214.633 362 215.532 362.795 216.693C364.815 219.696 367.163 221.952 366.435 225.956C365.889 228.631 364.451 231.051 363.687 233.671C362.967 236.142 362.852 238.749 363.352 241.273C363.851 243.797 364.95 246.164 366.556 248.174C368.162 250.185 370.228 251.78 372.579 252.825C374.931 253.87 377.5 254.335 380.068 254.18C384.91 253.907 389.952 250.759 390.735 245.973C391.608 240.513 386.949 235.691 386.421 230.214C386.148 227.248 387.094 224.19 386.421 221.297C385.42 217.294 381.579 214.819 378.667 211.907C372.424 205.629 372.387 195.257 362.54 192.618C357.953 191.508 350.236 192.855 350.691 198.878Z" fill="#FFDF34"/>
<path d="M331.397 273.105L319.912 243.898H289.552L304.823 278.982L351.328 277.236L349.835 274.415L331.397 273.105Z" fill="#FF4242"/>
<path d="M331.397 273.105L319.912 243.898H289.552L304.823 278.982L351.328 277.236L349.835 274.415L331.397 273.105Z" fill="url(#paint12_linear)"/>
<path d="M266.508 327.515C267.227 327.222 268.01 327.121 268.779 327.223C269.548 327.326 270.278 327.627 270.895 328.097C271.514 328.716 271.823 329.571 272.442 330.19C273.325 330.88 274.415 331.252 275.536 331.245C277.313 331.376 279.099 331.278 280.851 330.954C281.138 330.883 281.438 330.883 281.725 330.954C281.956 331.051 282.151 331.216 282.285 331.428C282.418 331.639 282.483 331.887 282.471 332.137C282.436 332.632 282.3 333.115 282.071 333.556C281.813 334.278 281.352 334.91 280.742 335.376C280.129 335.688 279.445 335.832 278.758 335.794C274.042 336.022 269.316 335.913 264.615 335.467C263.437 335.437 262.304 335 261.412 334.229C258.791 331.536 264.47 328.17 266.508 327.515Z" fill="#FF4242"/>
<path d="M295.995 343.892C296.614 343.892 297.233 343.892 297.815 343.892C298.038 343.856 298.266 343.856 298.489 343.892C298.915 344.071 299.277 344.376 299.526 344.766C300.127 345.53 300.673 346.585 301.583 346.968C302.414 347.307 303.291 347.522 304.186 347.604C306.204 347.775 308.236 347.634 310.211 347.186C310.497 347.115 310.797 347.115 311.084 347.186C311.317 347.28 311.513 347.445 311.647 347.658C311.781 347.87 311.845 348.118 311.83 348.369C311.795 348.864 311.659 349.347 311.43 349.788C311.192 350.641 310.672 351.388 309.954 351.907C309.237 352.426 308.365 352.686 307.48 352.645H300.054C297.761 352.645 295.467 352.645 293.174 352.554C291.623 352.528 290.083 352.308 288.587 351.899C287.553 351.643 286.628 351.063 285.948 350.243C285.624 349.823 285.449 349.308 285.449 348.778C285.449 348.248 285.624 347.733 285.948 347.313C286.407 346.879 286.972 346.572 287.586 346.422L292.409 344.747C293.325 344.4 294.269 344.133 295.231 343.947L295.995 343.892Z" fill="#FF4242"/>
<path d="M108.409 224.154H108.536C109.11 223.733 109.619 223.23 110.047 222.662C111.351 221.017 112.95 219.629 114.761 218.568C115.508 218.131 116.581 217.785 117.164 218.44C117.364 218.659 117.455 218.968 117.674 219.168C118.183 219.641 119.002 219.332 119.585 218.968C120.167 218.604 120.913 218.204 121.514 218.568C121.693 218.707 121.836 218.887 121.931 219.093C122.026 219.298 122.07 219.524 122.06 219.75C121.986 220.806 121.648 221.826 121.077 222.717C120.207 224.462 119.209 226.14 118.092 227.739C117.819 228.221 117.417 228.619 116.933 228.889C116.448 229.159 115.898 229.29 115.344 229.268C113.612 229.266 111.909 229.705 110.393 230.541C110.106 230.815 109.746 230.999 109.355 231.069C108.245 231.178 107.863 227.757 107.681 226.975C107.59 226.593 107.098 225.319 107.28 224.937C107.462 224.554 108.045 224.354 108.409 224.154Z" fill="#FFBBAB"/>
<path d="M79.3592 291.411L77.5936 378.795H65.7443L62.3224 309.354L54.8598 378.795L41.2813 381.069L38.1688 288.554L79.3592 291.411Z" fill="#FF4242"/>
<path d="M79.3592 291.411L77.5936 378.795H65.7443L62.3224 309.354L54.8598 378.795L41.2813 381.069L38.1688 288.554L79.3592 291.411Z" fill="url(#paint13_linear)"/>
<path d="M49.3993 377.43V296.434L38.1688 288.554L41.9548 378.795L49.3993 377.43Z" fill="url(#paint14_linear)"/>
<path d="M111.612 234.199L111.358 234.417C108.828 236.601 88.9332 253.725 85.8753 252.724C81.7702 250.871 77.804 248.724 74.0078 246.3L73.0068 245.7V221.643L85.4931 236.528L107.572 223.517L111.612 234.199Z" fill="#FF4242"/>
<path d="M111.358 234.417C108.828 236.601 88.9332 253.725 85.8753 252.724C81.7701 250.871 77.804 248.724 74.0078 246.3C73.8833 245.323 73.8407 244.337 73.8805 243.352C73.8805 241.223 73.1342 236.073 76.4104 237.311C79.0679 238.33 80.9973 241.769 83.6911 243.061C84.5332 243.816 85.5767 244.309 86.6944 244.48C88.5145 244.59 89.9707 243.116 91.2448 241.824C95.681 237.26 100.888 233.515 106.625 230.76C106.873 230.612 107.156 230.536 107.444 230.541C107.771 230.625 108.06 230.818 108.263 231.087C109.283 232.215 110.32 233.326 111.358 234.417Z" fill="url(#paint15_linear)"/>
<path d="M46.9602 214.109C43.7977 215.693 40.7177 217.436 37.732 219.332C31.3978 223.39 32.5263 225.264 33.6912 232.27C36.1491 247.248 37.3666 262.403 37.3316 277.581C37.0861 281.239 37.3494 284.914 38.1142 288.5C38.7695 290.756 40.2802 292.649 40.4622 295.033C50.2365 296.379 72.6063 301.402 79.3045 291.393C85.7115 281.785 74.1717 247.72 76.3195 232.47C78.4673 217.221 58.8095 215.601 58.8095 215.601L46.9602 214.109Z" fill="#FF4242"/>
<path d="M60.4295 284.15L42.7193 296.106L39.8252 292.467C38.1124 286.308 37.3151 279.932 37.459 273.541C37.8777 264.006 37.459 267.409 37.459 267.409L62.3771 283.168L60.4295 284.15Z" fill="url(#paint16_linear)"/>
<path d="M69.2573 199.333C69.2692 200.343 69.2084 201.353 69.0752 202.354C68.6035 204.435 67.7852 206.422 66.6545 208.231C66.3622 208.869 65.926 209.429 65.3803 209.869C64.2488 210.428 62.946 210.533 61.74 210.16C61.4522 210.097 61.154 210.097 60.8663 210.16C60.1746 210.433 60.0836 211.38 60.12 212.126L60.3203 215.601C60.393 216.076 60.31 216.561 60.0836 216.984C59.844 217.276 59.5196 217.486 59.1553 217.585C57.8719 218.006 56.4983 218.071 55.1808 217.773C53.8634 217.475 52.6515 216.825 51.6745 215.893C51.1898 215.443 50.7945 214.906 50.5096 214.309C50.2749 213.728 50.1277 213.114 50.0727 212.49C49.6541 209.16 50.0728 205.793 49.7633 202.463C49.3312 199.712 49.2517 196.918 49.5267 194.147C49.7887 192.664 50.4147 191.269 51.3487 190.088C52.2827 188.906 53.4954 187.975 54.878 187.377C57.7499 186.47 60.8417 186.54 63.6694 187.578C65.0575 187.967 66.4245 188.429 67.7647 188.961C68.4168 189.133 68.9813 189.541 69.3483 190.107C69.8761 191.181 69.3483 192.727 69.3483 193.874C69.2208 195.712 69.2573 197.531 69.2573 199.333Z" fill="#FFBBAB"/>
<path d="M45.9045 186.886C48.5256 182.955 54.6414 182.883 58.9005 182.319C59.5105 182.284 60.1007 182.09 60.6115 181.754C60.7359 181.663 60.8405 181.548 60.9192 181.415C60.9978 181.282 61.0489 181.135 61.0693 180.982C61.0897 180.829 61.0789 180.674 61.0378 180.525C60.9967 180.376 60.926 180.237 60.8299 180.117L64.0698 181.936V179.534C65.1812 180.413 66.3553 181.21 67.5827 181.918V179.771C69.0128 180.883 70.0782 182.397 70.6424 184.119C71.2066 185.84 71.244 187.691 70.7498 189.434C69.7123 193.073 64.2154 193.455 61.1394 193.292C60.2915 193.219 59.4389 193.219 58.5911 193.292C57.7461 193.385 56.9604 193.771 56.3705 194.383C55.6875 195.538 55.3058 196.846 55.2602 198.187C55.2489 198.266 55.2176 198.341 55.1692 198.405C55.1149 198.413 55.0597 198.413 55.0054 198.405C54.0589 198.514 53.1852 197.404 52.3116 197.786C52.1 197.904 51.9231 198.075 51.7986 198.283C51.674 198.49 51.6061 198.727 51.6017 198.969C51.5338 199.55 51.6152 200.139 51.8383 200.68C51.9545 200.888 52.0287 201.116 52.0567 201.353C52.0464 201.51 52.0095 201.663 51.9475 201.808L51.3469 203.464C51.1911 204.074 50.8234 204.61 50.3094 204.974C49.922 205.092 49.5116 205.111 49.1147 205.032C48.7177 204.953 48.3466 204.777 48.0342 204.519C47.5594 204.279 47.1431 203.937 46.8146 203.518C46.5971 203.148 46.4491 202.741 46.3778 202.317C45.5767 198.195 45.2469 193.995 45.3949 189.798C45.3563 188.802 45.53 187.809 45.9045 186.886Z" fill="#963637"/>
<path d="M50.0545 212.526C50.0545 212.526 47.3425 214.346 47.4153 216.475C47.4881 218.604 62.195 259.966 62.195 259.966C62.195 259.966 62.5227 220.314 62.195 218.477C61.6951 216.684 61.031 214.942 60.2111 213.272C60.2111 213.272 54.3319 217.53 50.0545 212.526Z" fill="white"/>
<path d="M54.8598 216.256L53.8769 219.459L55.5332 220.86L56.3341 243.334L62.1768 259.948L62.3224 243.061L57.2988 220.751L59.1371 217.603L56.7163 216.256H54.8598Z" fill="#212741"/>
<path d="M65.7444 274.743C64.0119 276.932 62.0468 278.928 59.8834 280.693L58.5365 281.767C58.047 282.191 57.4476 282.469 56.8073 282.567C56.3653 282.558 55.9305 282.452 55.5332 282.258C46.9714 278.925 38.5821 275.166 30.3967 270.994C26.9566 269.174 23.2071 266.936 22.479 263.151C22.2908 261.839 22.3216 260.504 22.57 259.202C23.8664 249.639 26.3678 240.278 30.0145 231.342C31.052 228.813 32.3261 223.936 35.0381 222.243L35.3658 222.08L35.748 221.898C39.3884 220.587 42.5555 224.227 43.5565 227.357C44.6918 231.832 44.5468 236.535 43.1379 240.932C41.7301 245.296 40.689 249.77 40.0254 254.307C39.9302 254.919 39.9928 255.546 40.2074 256.127C40.5534 256.706 41.0342 257.193 41.609 257.546L65.7444 274.743Z" fill="#FF4242"/>
<path d="M65.7443 378.795L66.3813 385.236L70.4403 385.982L72.2605 384.381L75.3912 386.838H87.5681C87.5681 386.838 90.6623 381.506 83.9277 379.686L77.2113 377.866L65.7443 378.795Z" fill="#212741"/>
<path d="M41.973 378.795L42.61 385.236L46.669 385.982L48.4892 384.381L51.5835 386.838H63.7603C63.7603 386.838 66.8546 381.506 60.12 379.686L53.4036 377.866L41.973 378.795Z" fill="#212741"/>
<path d="M62.3224 309.354L67.7647 304.932L71.6052 377.866L65.7443 378.795L62.3224 309.354Z" fill="url(#paint17_linear)"/>
<path d="M59.8835 280.693L58.5365 281.767C58.047 282.191 57.4477 282.469 56.8074 282.567C56.3653 282.558 55.9306 282.452 55.5333 282.258C46.9715 278.925 38.5821 275.166 30.3967 270.994C26.9566 269.174 23.2071 266.936 22.479 263.151C22.2908 261.839 22.3216 260.504 22.57 259.202C23.8664 249.639 26.3678 240.278 30.0145 231.342C31.052 228.813 32.3261 223.936 35.0382 222.243L35.3658 222.08L35.748 221.898C37.4578 221.874 39.1316 222.389 40.5328 223.368C41.9341 224.348 42.9919 225.743 43.5566 227.357C43.5566 227.357 30.597 253.852 31.1612 257.855C31.7255 261.859 58.9188 274.743 58.9188 274.743L59.8835 280.693Z" fill="url(#paint18_linear)"/>
<path d="M71.7508 276.963C72.4613 277.142 73.1252 277.471 73.6984 277.927C73.9751 278.164 74.1798 278.474 74.2892 278.821C74.3986 279.169 74.4083 279.54 74.3173 279.892C74.1031 280.302 73.8534 280.691 73.571 281.057C73.2252 281.676 73.1705 282.458 72.8611 283.095C72.2346 284.066 71.267 284.767 70.1491 285.06C66.9092 286.225 62.9595 286.389 60.3384 284.15C58.5183 282.531 54.6231 275.816 58.8277 274.797C60.6172 274.689 62.4125 274.873 64.1426 275.343C66.7189 275.672 69.2637 276.214 71.7508 276.963Z" fill="#FFBBAB"/>
<path d="M180.196 183.319L180.742 183.92L101.82 232.306L101.237 230.996L180.196 183.319Z" fill="white"/>
<path d="M122.024 220.151C122.15 219.561 122.053 218.945 121.751 218.422C121.54 218.191 121.28 218.01 120.991 217.894C120.701 217.777 120.388 217.728 120.076 217.749C119.776 217.724 119.473 217.754 119.184 217.84C118.529 218.076 118.147 218.731 117.728 219.295C117.596 219.47 117.443 219.629 117.273 219.769C117.041 219.922 116.791 220.044 116.527 220.133C116.154 220.248 115.799 220.413 115.471 220.624C114.966 221.008 114.545 221.491 114.233 222.043C113.927 222.483 113.665 222.953 113.451 223.444C113.213 224.084 113.107 224.765 113.141 225.446C113.12 225.677 113.178 225.908 113.305 226.101C113.475 226.286 113.71 226.397 113.96 226.411C114.962 226.49 115.961 226.234 116.8 225.683C117.655 225.173 118.42 224.5 119.221 223.863C119.933 223.489 120.553 222.962 121.037 222.32C121.522 221.678 121.859 220.938 122.024 220.151Z" fill="#FFBBAB"/>
</g>
<defs>
<linearGradient id="paint0_linear" x1="248.725" y1="255.854" x2="199.04" y2="721.415" gradientUnits="userSpaceOnUse">
<stop offset="0.01"/>
<stop offset="0.08" stop-opacity="0.69"/>
<stop offset="0.21" stop-opacity="0.32"/>
<stop offset="1" stop-opacity="0"/>
</linearGradient>
<linearGradient id="paint1_linear" x1="50.3879" y1="138.518" x2="272.852" y2="332.239" gradientUnits="userSpaceOnUse">
<stop stop-color="white"/>
<stop offset="1" stop-color="#CBCBCB"/>
</linearGradient>
<linearGradient id="paint2_linear" x1="-20350.6" y1="8519.05" x2="-18342.6" y2="16135.5" gradientUnits="userSpaceOnUse">
<stop offset="0.01"/>
<stop offset="0.08" stop-opacity="0.69"/>
<stop offset="0.21" stop-opacity="0.32"/>
<stop offset="1" stop-opacity="0"/>
</linearGradient>
<linearGradient id="paint3_linear" x1="62000.1" y1="188.741" x2="62000.1" y2="203.977" gradientUnits="userSpaceOnUse">
<stop stop-color="white"/>
<stop offset="1" stop-color="#CBCBCB"/>
</linearGradient>
<linearGradient id="paint4_linear" x1="9792.21" y1="1366.89" x2="9793.92" y2="1393.73" gradientUnits="userSpaceOnUse">
<stop stop-color="white"/>
<stop offset="1" stop-color="#CBCBCB"/>
</linearGradient>
<linearGradient id="paint5_linear" x1="425.554" y1="240.477" x2="608.498" y2="396.362" gradientUnits="userSpaceOnUse">
<stop offset="0.01"/>
<stop offset="0.13" stop-opacity="0.69"/>
<stop offset="0.25" stop-opacity="0.32"/>
<stop offset="1" stop-opacity="0"/>
</linearGradient>
<linearGradient id="paint6_linear" x1="1046.27" y1="40116.9" x2="-14098.5" y2="35285.1" gradientUnits="userSpaceOnUse">
<stop offset="0.01"/>
<stop offset="0.13" stop-opacity="0.69"/>
<stop offset="0.25" stop-opacity="0.32"/>
<stop offset="1" stop-opacity="0"/>
</linearGradient>
<linearGradient id="paint7_linear" x1="-1382.68" y1="4916.23" x2="-1880.38" y2="4628.42" gradientUnits="userSpaceOnUse">
<stop offset="0.01"/>
<stop offset="0.08" stop-opacity="0.69"/>
<stop offset="0.21" stop-opacity="0.32"/>
<stop offset="1" stop-opacity="0"/>
</linearGradient>
<linearGradient id="paint8_linear" x1="-23278.1" y1="2960.08" x2="-23337.1" y2="8441.84" gradientUnits="userSpaceOnUse">
<stop offset="0.01"/>
<stop offset="0.08" stop-opacity="0.69"/>
<stop offset="0.21" stop-opacity="0.32"/>
<stop offset="1" stop-opacity="0"/>
</linearGradient>
<linearGradient id="paint9_linear" x1="-10842.5" y1="10016.3" x2="-7259.46" y2="11490.7" gradientUnits="userSpaceOnUse">
<stop offset="0.01"/>
<stop offset="0.08" stop-opacity="0.69"/>
<stop offset="0.21" stop-opacity="0.32"/>
<stop offset="1" stop-opacity="0"/>
</linearGradient>
<linearGradient id="paint10_linear" x1="-23278.1" y1="3500.62" x2="-23337" y2="8977.49" gradientUnits="userSpaceOnUse">
<stop offset="0.01"/>
<stop offset="0.08" stop-opacity="0.69"/>
<stop offset="0.21" stop-opacity="0.32"/>
<stop offset="1" stop-opacity="0"/>
</linearGradient>
<linearGradient id="paint11_linear" x1="-1710.58" y1="8211.42" x2="-3380.09" y2="8518.53" gradientUnits="userSpaceOnUse">
<stop offset="0.01"/>
<stop offset="0.08" stop-opacity="0.69"/>
<stop offset="0.21" stop-opacity="0.32"/>
<stop offset="1" stop-opacity="0"/>
</linearGradient>
<linearGradient id="paint12_linear" x1="-6975.97" y1="5786.87" x2="-7911.62" y2="3498.19" gradientUnits="userSpaceOnUse">
<stop offset="0.01"/>
<stop offset="0.08" stop-opacity="0.69"/>
<stop offset="0.21" stop-opacity="0.32"/>
<stop offset="1" stop-opacity="0"/>
</linearGradient>
<linearGradient id="paint13_linear" x1="116964" y1="18433.3" x2="121145" y2="19540.1" gradientUnits="userSpaceOnUse">
<stop offset="0.01"/>
<stop offset="0.08" stop-opacity="0.69"/>
<stop offset="0.21" stop-opacity="0.32"/>
<stop offset="1" stop-opacity="0"/>
</linearGradient>
<linearGradient id="paint14_linear" x1="28711.7" y1="17609.8" x2="27885.9" y2="17697.9" gradientUnits="userSpaceOnUse">
<stop offset="0.01"/>
<stop offset="0.08" stop-opacity="0.69"/>
<stop offset="0.21" stop-opacity="0.32"/>
<stop offset="1" stop-opacity="0"/>
</linearGradient>
<linearGradient id="paint15_linear" x1="107844" y1="4022.54" x2="107693" y2="3238.84" gradientUnits="userSpaceOnUse">
<stop offset="0.01"/>
<stop offset="0.08" stop-opacity="0.69"/>
<stop offset="0.21" stop-opacity="0.32"/>
<stop offset="1" stop-opacity="0"/>
</linearGradient>
<linearGradient id="paint16_linear" x1="69402.3" y1="5209.07" x2="68891.3" y2="6137.27" gradientUnits="userSpaceOnUse">
<stop offset="0.01"/>
<stop offset="0.08" stop-opacity="0.69"/>
<stop offset="0.21" stop-opacity="0.32"/>
<stop offset="1" stop-opacity="0"/>
</linearGradient>
<linearGradient id="paint17_linear" x1="22725.8" y1="15823" x2="23013.9" y2="15831.2" gradientUnits="userSpaceOnUse">
<stop offset="0.01"/>
<stop offset="0.08" stop-opacity="0.69"/>
<stop offset="0.21" stop-opacity="0.32"/>
<stop offset="1" stop-opacity="0"/>
</linearGradient>
<linearGradient id="paint18_linear" x1="107548" y1="9421.96" x2="105012" y2="10259" gradientUnits="userSpaceOnUse">
<stop offset="0.01"/>
<stop offset="0.08" stop-opacity="0.69"/>
<stop offset="0.21" stop-opacity="0.32"/>
<stop offset="1" stop-opacity="0"/>
</linearGradient>
<clipPath id="clip0">
<rect width="551" height="428" fill="white" transform="matrix(-1 0 0 1 551 0)"/>
</clipPath>
</defs>
</svg>
