<svg width="661" height="499" viewBox="0 0 661 499" fill="none" xmlns="http://www.w3.org/2000/svg">
<path d="M243.859 436.237L249.825 366.869L379.083 385.159L388.42 436.237H243.859Z" fill="#231F20"/>
<path d="M243.876 437.065H388.337C388.46 437.063 388.58 437.036 388.691 436.984C388.802 436.933 388.901 436.859 388.982 436.767C389.058 436.673 389.113 436.564 389.141 436.447C389.17 436.329 389.172 436.207 389.147 436.088L379.811 385.01C379.779 384.839 379.695 384.682 379.571 384.56C379.447 384.439 379.288 384.359 379.117 384.331L249.858 366.124C249.635 366.095 249.41 366.154 249.23 366.289C249.142 366.36 249.071 366.447 249.019 366.547C248.968 366.647 248.938 366.757 248.933 366.869L242.967 436.237C242.956 436.352 242.97 436.467 243.007 436.575C243.044 436.683 243.104 436.783 243.182 436.866C243.276 436.949 243.387 437.01 243.507 437.044C243.627 437.078 243.753 437.085 243.876 437.065ZM387.445 435.41H244.768L250.569 367.812L378.422 385.887L387.445 435.41Z" fill="#231F20"/>
<path d="M236.621 272.772L242.389 418.097C242.389 418.097 347.322 411.476 393.857 407.52L382.752 296.623L426.51 317.561L458.767 257.643C458.767 257.643 365.384 178.029 282.743 196.567" fill="#FF7777"/>
<path d="M285.767 111.657C293.567 104.258 302.441 102.504 312.422 100.07C316.305 99.0938 319.246 96.8593 323.378 96.4621C327.509 96.0649 332.533 96.1311 335.97 98.5973C340.362 102.075 343.995 106.419 346.645 111.359C349.242 116.511 351.174 121.972 352.396 127.613L355.701 139.977C356.78 143.786 357.641 147.655 358.279 151.563C359.105 157.273 359.634 164.672 357.634 170.25C355.783 175.414 350.594 175.861 345.736 176.589C331.425 178.774 316.404 178.94 302.441 174.719C277.653 167.188 265.458 135.541 283.024 114.636C283.883 113.593 284.799 112.599 285.767 111.657Z" fill="white"/>
<path d="M326.98 178.923C333.283 178.891 339.574 178.388 345.802 177.417L346.678 177.284C351.255 176.606 356.444 175.844 358.345 170.531C359.997 165.913 360.228 159.673 359.039 151.447C358.391 147.49 357.524 143.573 356.444 139.712L353.139 127.331C351.895 121.62 349.929 116.092 347.289 110.879C344.587 105.831 340.874 101.397 336.383 97.8524C333.425 95.7338 329.128 94.9889 323.246 95.5682C320.918 95.8875 318.654 96.5688 316.536 97.5876C315.124 98.2578 313.66 98.8113 312.157 99.2427L309.893 99.8055C300.953 102.023 292.493 104.109 285.106 111.11C284.094 112.069 283.14 113.086 282.247 114.156C278.314 118.815 275.621 124.395 274.42 130.377C273.218 136.359 273.545 142.548 275.373 148.368C277.258 154.742 280.677 160.554 285.331 165.293C289.985 170.032 295.729 173.553 302.06 175.547C310.155 177.897 318.553 179.034 326.98 178.923ZM326.98 97.0248C329.961 96.8588 332.921 97.6158 335.458 99.1931C339.747 102.603 343.296 106.856 345.885 111.69C348.449 116.785 350.36 122.185 351.569 127.761L354.874 140.126C355.946 143.936 356.801 147.805 357.436 151.712C358.559 159.557 358.361 165.715 356.824 169.919C355.287 174.123 350.991 174.884 346.48 175.596L345.587 175.729C329.36 178.195 314.917 177.582 302.622 173.875C296.554 171.957 291.049 168.578 286.589 164.033C282.129 159.488 278.851 153.916 277.042 147.806C275.303 142.24 274.998 136.325 276.154 130.61C277.309 124.895 279.888 119.565 283.652 115.116C284.508 114.097 285.419 113.125 286.378 112.203C293.434 105.582 301.251 103.563 310.406 101.312L312.67 100.749C314.255 100.328 315.803 99.7738 317.297 99.0938C319.239 98.1472 321.32 97.5159 323.46 97.2234C324.618 97.0959 325.782 97.0296 326.947 97.0248H326.98Z" fill="#231F20"/>
<path d="M345.207 198.057L345.373 228.595C345.373 228.595 335.458 246.951 316.123 241.423C296.789 235.894 294.145 220.402 294.145 220.402C293.781 201.45 294.36 182.118 292.988 163.298C292.988 163.083 299.433 157.406 300.094 156.396C301.638 154.264 302.6 151.765 302.887 149.146C304.308 140.722 304.903 132.032 305.63 123.508L309.447 123.16C309.816 122.531 309.922 121.782 309.745 121.075C314.291 126.774 320.227 131.203 326.98 133.935C330.748 135.458 335.028 136.418 338.862 135.044C336.455 130.952 334.778 126.471 333.904 121.803C339.091 127.774 345.061 133.013 351.652 137.378C358.576 141.98 359.27 134.068 360.361 142.344C361.551 151.331 361.6 174.156 359.832 183.16C356.775 198.189 345.207 198.057 345.207 198.057Z" fill="white"/>
<path d="M323.163 243.293C338.168 243.293 346 229.158 346.1 228.992C346.165 228.87 346.199 228.734 346.199 228.595L346.05 198.802C348.859 198.471 357.965 196.435 360.559 183.276C362.393 173.941 362.211 150.818 361.088 142.178C360.708 139.248 360.361 138.222 359.617 137.742C359.311 137.592 358.975 137.513 358.634 137.513C358.293 137.513 357.957 137.592 357.651 137.742C356.527 138.106 354.957 138.586 352.032 136.633C345.498 132.316 339.583 127.126 334.449 121.207C334.332 121.07 334.173 120.976 333.996 120.94C333.819 120.904 333.636 120.928 333.475 121.008C333.31 121.086 333.176 121.215 333.092 121.377C333.008 121.538 332.98 121.723 333.012 121.902C333.834 126.328 335.374 130.588 337.573 134.515C334.064 135.158 330.443 134.671 327.228 133.124C320.605 130.452 314.782 126.114 310.323 120.528C310.206 120.381 310.042 120.279 309.858 120.239C309.674 120.2 309.482 120.226 309.315 120.313C309.142 120.393 309.004 120.532 308.925 120.705C308.846 120.878 308.832 121.074 308.885 121.257C308.984 121.614 308.984 121.992 308.885 122.349L305.58 122.647C305.388 122.669 305.209 122.757 305.073 122.895C304.938 123.034 304.854 123.215 304.837 123.408L304.506 127.199C303.911 134.399 303.283 141.83 302.077 148.981C301.82 151.488 300.902 153.882 299.417 155.916C299.103 156.396 296.69 158.631 295.087 160.12C292.146 162.835 292.146 162.835 292.179 163.331C293.104 175.927 293.137 188.987 293.187 201.616C293.187 207.773 293.187 214.129 293.335 220.352C293.311 220.461 293.311 220.574 293.335 220.683C293.881 223.116 297.847 237.003 315.892 242.201C318.252 242.905 320.7 243.273 323.163 243.293ZM344.546 228.396C343.423 230.366 334.02 245.676 316.338 240.645C298.342 235.514 295.12 221.329 294.856 220.336C294.74 214.129 294.723 207.789 294.707 201.665C294.707 189.119 294.624 176.159 293.715 163.596C294.129 163.182 295.153 162.222 296.078 161.378C297.727 159.95 299.289 158.425 300.755 156.81C302.361 154.583 303.363 151.977 303.663 149.246C304.886 142.013 305.498 134.548 306.109 127.331L306.374 124.219L309.48 123.938C309.609 123.927 309.733 123.885 309.842 123.816C309.952 123.747 310.043 123.652 310.108 123.541C310.201 123.392 310.283 123.237 310.356 123.077C314.798 128.166 320.374 132.136 326.633 134.664C331.591 136.65 335.656 137.03 339.11 135.789C339.223 135.748 339.327 135.682 339.413 135.596C339.498 135.51 339.564 135.407 339.605 135.293C339.658 135.184 339.685 135.065 339.685 134.945C339.685 134.825 339.658 134.706 339.605 134.597C337.775 131.491 336.374 128.15 335.441 124.666C340.161 129.716 345.452 134.198 351.206 138.024C354.808 140.407 356.957 139.679 358.245 139.315C358.451 139.23 358.668 139.18 358.89 139.166C359.274 140.23 359.497 141.346 359.551 142.476C360.675 151.017 360.84 173.825 359.039 183.044C356.246 197.196 345.819 197.329 345.323 197.279C345.212 197.277 345.102 197.299 345 197.341C344.897 197.384 344.805 197.447 344.728 197.527C344.574 197.681 344.485 197.889 344.48 198.107L344.546 228.396Z" fill="#231F20"/>
<path d="M302.821 177.284C298.964 178.791 294.669 178.708 290.873 177.053C288.285 175.808 286.06 173.919 284.41 171.565C282.761 169.212 281.743 166.473 281.454 163.613C281.08 161.515 281.182 159.36 281.751 157.306C282.037 156.279 282.543 155.327 283.234 154.515C283.924 153.703 284.783 153.052 285.75 152.606C288.097 151.613 290.708 152.242 293.253 152.887C296.938 153.831 297.384 155.717 299.863 158.084C299.598 157.886 299.284 157.191 299.02 156.992" fill="white"/>
<path d="M297.136 179.188C299.184 179.189 301.214 178.801 303.118 178.046C303.232 178.016 303.338 177.963 303.43 177.889C303.521 177.815 303.596 177.723 303.649 177.618C303.702 177.513 303.732 177.398 303.737 177.28C303.742 177.162 303.722 177.045 303.678 176.936C303.634 176.827 303.568 176.728 303.483 176.647C303.398 176.565 303.296 176.503 303.186 176.464C303.075 176.425 302.957 176.41 302.84 176.42C302.723 176.43 302.609 176.465 302.507 176.523C298.863 177.947 294.803 177.864 291.22 176.291C288.747 175.104 286.624 173.296 285.057 171.042C283.49 168.788 282.533 166.165 282.28 163.431C281.912 161.457 281.997 159.425 282.528 157.489C282.784 156.578 283.233 155.733 283.843 155.011C284.453 154.288 285.21 153.705 286.064 153.301C288.097 152.44 290.427 152.937 293.038 153.615C294.836 154.065 296.406 155.16 297.45 156.694C297.946 157.257 298.491 157.902 299.218 158.598L299.383 158.747C299.466 158.817 299.561 158.871 299.665 158.905C299.768 158.938 299.877 158.951 299.985 158.943C300.093 158.934 300.198 158.905 300.295 158.855C300.392 158.806 300.478 158.738 300.548 158.655C300.619 158.573 300.673 158.477 300.706 158.374C300.74 158.27 300.753 158.162 300.744 158.053C300.736 157.945 300.706 157.839 300.657 157.742C300.608 157.645 300.54 157.559 300.458 157.489C300.458 157.489 300.458 157.489 300.375 157.489L300.16 157.174C299.998 156.889 299.791 156.632 299.549 156.413C299.441 156.331 299.317 156.275 299.185 156.247L298.706 155.701C297.433 153.922 295.561 152.664 293.434 152.159C291.204 151.58 288.13 150.785 285.403 151.927C284.33 152.426 283.377 153.149 282.607 154.049C281.837 154.948 281.269 156.003 280.942 157.141C280.342 159.296 280.234 161.559 280.628 163.762C280.931 166.766 282.002 169.64 283.739 172.108C285.476 174.576 287.82 176.552 290.543 177.847C292.625 178.742 294.87 179.199 297.136 179.188Z" fill="#231F20"/>
<path d="M345.372 215.139C345.372 215.139 332.78 216.794 324.501 208.087C316.222 199.381 317.197 192.496 317.197 192.496C317.197 192.496 332.384 200.109 345.29 198.057L345.372 215.139Z" fill="#231F20"/>
<path d="M342.778 216.099C343.656 216.104 344.533 216.06 345.406 215.966C345.606 215.941 345.789 215.843 345.921 215.69C346.052 215.537 346.122 215.34 346.116 215.139V198.057C346.117 197.938 346.093 197.82 346.044 197.712C345.996 197.603 345.924 197.507 345.835 197.428C345.745 197.351 345.639 197.295 345.525 197.264C345.411 197.232 345.291 197.226 345.174 197.246C332.681 199.232 317.726 191.834 317.577 191.751C317.46 191.69 317.33 191.658 317.197 191.658C317.065 191.658 316.935 191.69 316.817 191.751C316.701 191.81 316.601 191.896 316.526 192.003C316.451 192.11 316.404 192.234 316.388 192.363C316.388 192.661 315.495 199.795 323.94 208.65C330.087 215.188 338.548 216.099 342.778 216.099ZM344.431 214.443C341.687 214.592 331.756 214.659 324.981 207.574C319.081 201.401 318.04 196.104 317.891 193.836C321.643 195.492 333.524 200.457 344.331 199.05L344.431 214.443Z" fill="#231F20"/>
<path d="M338.068 153.053C338.068 153.053 347.322 168.976 344.678 171.475C342.034 173.974 335.391 171.789 335.391 171.789" fill="white"/>
<path d="M340.745 173.511C342.394 173.634 344.027 173.119 345.306 172.071C348.149 169.34 341.026 156.495 338.696 152.639C338.649 152.533 338.58 152.439 338.493 152.362C338.407 152.285 338.306 152.227 338.195 152.192C338.085 152.156 337.969 152.144 337.854 152.157C337.739 152.169 337.628 152.206 337.528 152.264C337.428 152.322 337.342 152.401 337.274 152.495C337.206 152.589 337.159 152.696 337.135 152.809C337.111 152.922 337.111 153.039 337.135 153.153C337.16 153.266 337.207 153.373 337.275 153.466C341.588 160.882 345.339 169.654 344.084 170.879C342.249 172.65 337.358 171.574 335.623 171.011C335.404 170.943 335.166 170.965 334.963 171.072C334.76 171.179 334.608 171.363 334.54 171.582C334.472 171.802 334.494 172.039 334.601 172.243C334.708 172.446 334.891 172.598 335.11 172.667C336.938 173.22 338.836 173.504 340.745 173.511Z" fill="#231F20"/>
<path d="M320.858 153.222C320.834 151.248 321.946 149.633 323.342 149.616C324.738 149.599 325.89 151.185 325.914 153.159C325.939 155.134 324.827 156.748 323.431 156.766C322.034 156.783 320.883 155.197 320.858 153.222Z" fill="#231F20"/>
<path d="M348.139 154.203C348.104 152.229 349.208 150.608 350.604 150.584C352 150.559 353.16 152.139 353.195 154.114C353.23 156.088 352.126 157.708 350.73 157.733C349.334 157.758 348.174 156.177 348.139 154.203Z" fill="#231F20"/>
<path d="M326.98 175.96C331.144 179.387 339.423 180.545 350.611 179.271C350.611 179.271 350.908 194.167 340.134 193.456C329.36 192.744 326.98 175.96 326.98 175.96Z" fill="#231F20"/>
<path d="M340.911 194.283C342.059 194.317 343.202 194.122 344.274 193.71C345.346 193.298 346.326 192.677 347.157 191.883C351.553 187.696 351.437 179.569 351.437 179.238C351.424 179.005 351.323 178.787 351.156 178.625C351.069 178.549 350.966 178.491 350.855 178.457C350.744 178.423 350.627 178.412 350.512 178.427C339.638 179.684 331.475 178.592 327.492 175.315C327.363 175.21 327.206 175.146 327.04 175.132C326.874 175.119 326.708 175.155 326.564 175.238C326.419 175.32 326.302 175.444 326.229 175.593C326.156 175.743 326.13 175.911 326.154 176.076C326.253 176.788 328.765 193.472 340.068 194.283H340.911ZM349.768 180.164C349.652 182.316 349.091 187.778 346.017 190.691C345.242 191.411 344.321 191.955 343.318 192.287C342.314 192.618 341.251 192.729 340.2 192.611C332.334 192.065 329.161 182.068 328.17 177.715C332.714 180.363 340.101 181.191 349.768 180.164Z" fill="#231F20"/>
<path d="M329.228 151.993C329.447 152.033 329.673 151.984 329.855 151.856C330.038 151.729 330.163 151.534 330.203 151.315C330.242 151.095 330.193 150.869 330.066 150.686C329.939 150.503 329.744 150.378 329.525 150.338L317.181 145.737C317.079 145.699 316.97 145.681 316.862 145.685C316.753 145.689 316.646 145.714 316.547 145.76C316.448 145.805 316.359 145.87 316.285 145.949C316.211 146.029 316.153 146.123 316.115 146.225C316.077 146.327 316.059 146.436 316.063 146.545C316.067 146.654 316.093 146.761 316.138 146.86C316.183 146.959 316.248 147.048 316.327 147.123C316.407 147.197 316.5 147.255 316.602 147.293L328.947 151.877L329.228 151.993Z" fill="#231F20"/>
<path d="M346.728 151.315H346.959L354.643 149.047C354.752 149.017 354.853 148.965 354.942 148.895C355.03 148.826 355.104 148.739 355.159 148.641C355.215 148.543 355.25 148.434 355.264 148.322C355.277 148.21 355.268 148.096 355.238 147.988C355.208 147.879 355.156 147.778 355.086 147.689C355.017 147.6 354.931 147.526 354.832 147.47C354.734 147.415 354.626 147.38 354.514 147.366C354.402 147.353 354.289 147.362 354.18 147.392L346.496 149.66C346.277 149.69 346.079 149.807 345.946 149.984C345.813 150.161 345.755 150.383 345.786 150.603C345.816 150.822 345.933 151.021 346.109 151.154C346.286 151.288 346.508 151.345 346.728 151.315Z" fill="#231F20"/>
<path d="M274.447 134.465C274.877 133.521 361.6 129.648 361.6 129.648C361.6 129.648 363.996 108.23 351.388 94.8069C338.779 81.3833 302.969 85.9516 287.32 98.3655C271.671 110.779 274.447 134.465 274.447 134.465Z" fill="white"/>
<path d="M274.447 135.293C274.586 135.295 274.723 135.261 274.844 135.193C277.868 134.448 328.253 131.883 361.633 130.476C361.831 130.469 362.02 130.389 362.163 130.251C362.306 130.114 362.394 129.929 362.41 129.731C362.509 128.854 364.707 107.784 351.999 94.2441C346.05 87.9048 334.549 84.9255 320.436 86.0675C307.415 87.1269 294.525 91.5958 286.808 97.6538C270.977 110.217 273.588 134.25 273.588 134.498C273.594 134.696 273.671 134.884 273.805 135.03C273.938 135.176 274.119 135.269 274.315 135.293H274.447ZM360.823 128.854C295.649 131.767 279.372 132.926 275.207 133.588C274.91 129.45 274.298 109.753 287.832 99.0111C303.548 86.5476 338.762 82.5586 350.793 95.3697C361.716 107.006 361.088 125.08 360.823 128.854Z" fill="#231F20"/>
<path d="M361.6 129.648C361.6 129.648 387.263 133.637 387.082 141.913C386.9 150.189 324.287 153.731 297.186 132.876L361.6 129.648Z" fill="white"/>
<path d="M357.551 149.163C369.747 149.163 379.959 147.657 384.685 145.389C386.801 144.38 387.875 143.188 387.99 141.847C388.189 133.141 364.508 129.235 361.798 128.821C361.744 128.813 361.688 128.813 361.633 128.821L297.186 131.982C297.018 131.983 296.854 132.038 296.72 132.139C296.586 132.241 296.488 132.383 296.442 132.545C296.394 132.708 296.395 132.881 296.445 133.043C296.495 133.205 296.592 133.348 296.723 133.455C311.728 145.025 337.341 149.163 357.551 149.163ZM361.55 130.476C368.557 131.568 386.338 135.673 386.338 141.814C386.338 142.443 385.495 143.204 384.058 143.883C372.044 149.66 324.022 150.322 299.648 133.505L361.55 130.476Z" fill="#231F20"/>
<path d="M323.642 313.257C325.177 313.243 326.675 312.783 327.955 311.933C342.15 302.846 346.281 247.663 346.133 228.595C346.133 228.376 346.046 228.165 345.891 228.01C345.736 227.855 345.526 227.767 345.306 227.767C345.198 227.77 345.091 227.793 344.991 227.837C344.892 227.88 344.802 227.943 344.727 228.021C344.652 228.1 344.593 228.192 344.553 228.294C344.514 228.395 344.494 228.503 344.497 228.612C344.612 252.43 339.457 302.582 327.03 310.543C326.078 311.181 324.97 311.547 323.826 311.602C322.682 311.658 321.545 311.4 320.535 310.857C302.094 302.184 294.922 221.147 294.856 220.336C294.847 220.227 294.817 220.121 294.767 220.024C294.718 219.927 294.65 219.841 294.567 219.77C294.484 219.699 294.388 219.646 294.284 219.612C294.181 219.578 294.072 219.566 293.963 219.574C293.855 219.583 293.749 219.613 293.652 219.663C293.555 219.712 293.469 219.781 293.398 219.864C293.328 219.947 293.274 220.043 293.241 220.146C293.207 220.25 293.194 220.359 293.203 220.468C293.501 223.778 300.54 303.227 319.825 312.364C321.016 312.94 322.319 313.246 323.642 313.257Z" fill="#231F20"/>
<path d="M330.715 341.76L336.614 339.939C336.614 339.939 338.267 328.783 337.259 321.004C336.251 313.224 332.599 309.302 330.864 307.977C329.128 306.653 320.337 308.573 320.337 308.573C320.337 308.573 326.947 317.611 327.559 323.95C328.17 330.289 330.715 341.76 330.715 341.76Z" fill="white"/>
<path d="M330.715 342.62C330.797 342.636 330.881 342.636 330.963 342.62L336.879 340.8C337.032 340.755 337.169 340.667 337.274 340.547C337.38 340.427 337.449 340.279 337.474 340.121C338.415 333.777 338.625 327.346 338.102 320.954C336.945 312.182 332.665 308.325 331.392 307.349C329.475 305.909 322.32 307.349 320.155 307.779C320.018 307.81 319.89 307.875 319.784 307.967C319.677 308.06 319.595 308.177 319.544 308.309C319.493 308.442 319.477 308.587 319.497 308.729C319.517 308.871 319.573 309.005 319.66 309.12C319.66 309.12 326.154 318.058 326.716 324.016C327.311 330.356 329.773 341.462 329.889 341.925C329.942 342.158 330.084 342.36 330.285 342.488C330.416 342.565 330.563 342.61 330.715 342.62ZM335.854 339.31L331.343 340.684C330.748 337.87 328.897 329.098 328.418 323.9C327.939 318.703 323.576 311.784 321.808 309.153C325.543 308.441 329.575 308.077 330.368 308.673C331.161 309.269 335.325 312.827 336.432 321.136C336.921 327.191 336.727 333.282 335.854 339.293V339.31Z" fill="#231F20"/>
<path d="M314.074 314.83C314.719 311.354 319.114 305.412 326.121 310.56C333.127 315.707 330.715 341.76 330.715 341.76L326.154 340.403L325.443 327.691C325.443 327.691 311.678 327.856 314.074 314.83Z" fill="white"/>
<path d="M330.715 342.62C330.886 342.62 331.053 342.568 331.194 342.471C331.298 342.401 331.385 342.308 331.448 342.199C331.511 342.09 331.549 341.968 331.558 341.843C331.657 340.75 333.921 315.244 326.6 309.864C322.981 307.2 320.139 307.464 318.338 308.209C317.024 308.808 315.873 309.712 314.979 310.846C314.085 311.98 313.474 313.312 313.198 314.731C312.761 316.382 312.707 318.111 313.039 319.786C313.371 321.462 314.081 323.039 315.115 324.397C317.974 327.79 322.684 328.436 324.584 328.568L325.245 340.502C325.259 340.677 325.325 340.845 325.433 340.983C325.542 341.122 325.689 341.225 325.856 341.28L330.417 342.637L330.715 342.62ZM320.882 309.401C322.59 309.508 324.22 310.151 325.542 311.238C330.715 315.045 330.5 332.855 329.889 340.651L326.898 339.757L326.237 327.641C326.224 327.422 326.128 327.215 325.968 327.064C325.808 326.913 325.597 326.83 325.377 326.83C325.377 326.83 319.445 326.83 316.404 323.238C315.534 322.068 314.942 320.714 314.673 319.28C314.404 317.846 314.465 316.369 314.851 314.962C315.083 313.837 315.573 312.78 316.281 311.876C316.989 310.971 317.897 310.243 318.932 309.749C319.554 309.508 320.216 309.39 320.882 309.401Z" fill="#231F20"/>
<path d="M337.259 321.004L333.061 321.236L333.326 325.92L337.622 325.688L337.259 321.004Z" fill="#231F20"/>
<path d="M333.326 326.78L337.606 326.532C337.719 326.528 337.831 326.501 337.934 326.452C338.037 326.404 338.129 326.335 338.205 326.25C338.28 326.165 338.338 326.065 338.374 325.957C338.41 325.85 338.424 325.735 338.415 325.622L338.052 320.938C338.048 320.827 338.021 320.718 337.974 320.617C337.926 320.517 337.858 320.428 337.774 320.355C337.691 320.282 337.593 320.227 337.487 320.193C337.381 320.16 337.27 320.148 337.16 320.16L332.962 320.391C332.851 320.398 332.743 320.426 332.643 320.474C332.543 320.523 332.454 320.59 332.38 320.673C332.307 320.756 332.25 320.853 332.214 320.958C332.178 321.063 332.162 321.174 332.169 321.285L332.417 325.969C332.423 326.082 332.452 326.193 332.501 326.295C332.55 326.397 332.619 326.488 332.703 326.564C332.788 326.639 332.886 326.697 332.993 326.734C333.1 326.771 333.213 326.787 333.326 326.78ZM336.631 324.877L334.053 325.026L333.888 322.047L336.399 321.914L336.631 324.877Z" fill="#231F20"/>
<path d="M452.967 191.089C449.662 201.632 429.468 252.165 423.701 267.392C417.934 282.62 412.761 304.866 426.51 317.561C432.674 323.255 442.49 325.241 449.744 321.02C452.857 319.034 455.515 316.411 457.544 313.324C476.019 287.569 479.655 198.189 483.075 183.442C483.075 183.442 460.981 164.854 457.478 164.556C453.975 164.258 452.967 191.089 452.967 191.089Z" fill="white"/>
<path d="M440.986 324.116C444.2 324.147 447.365 323.325 450.158 321.732C453.368 319.682 456.115 316.981 458.222 313.804C472.037 294.471 477.606 240.049 480.944 207.541C482.1 196.269 483.009 187.381 483.885 183.64C483.92 183.49 483.912 183.333 483.863 183.186C483.813 183.04 483.723 182.911 483.604 182.813C479.886 179.668 461.13 164.027 457.561 163.729C457.335 163.714 457.108 163.746 456.895 163.823C456.681 163.9 456.486 164.02 456.321 164.176C453.248 166.907 452.306 186.686 452.141 190.94C449.86 198.156 440.028 223.249 432.129 243.426C428.212 253.456 424.808 262.113 422.924 267.095C414.05 290.499 415.108 308.16 425.948 318.173C430.051 321.955 435.411 324.073 440.986 324.116ZM482.166 183.756C481.291 187.845 480.415 196.518 479.291 207.376C475.986 239.718 470.434 293.859 456.883 312.844C454.902 315.823 452.332 318.364 449.331 320.309C442.721 324.165 433.352 322.742 427.072 316.998C414.05 304.982 418.463 283.58 424.478 267.74C426.362 262.775 429.749 254.101 433.666 244.071C441.614 223.779 451.513 198.504 453.743 191.387C453.759 191.316 453.759 191.242 453.743 191.172C454.19 179.37 455.726 166.178 457.429 165.417C459.742 165.566 473.656 176.672 482.166 183.756Z" fill="#231F20"/>
<path d="M426.345 163.431C426.345 163.431 429.65 171.707 434.789 173.362C439.929 175.017 451.645 169.803 452.967 170.581C454.289 171.359 483.307 195.326 486.017 196.137C488.727 196.948 494.692 189.914 497.403 181.638C497.403 181.638 469.046 160.302 467.228 158.084C465.41 155.867 463.725 143.188 461.097 138.355L426.345 163.431Z" fill="white"/>
<path d="M486.513 196.915C490.049 196.915 495.585 189.914 498.08 181.886C498.128 181.722 498.126 181.547 498.073 181.384C498.02 181.222 497.918 181.079 497.783 180.976C486.413 172.418 469.029 159.127 467.757 157.555C466.996 156.644 466.104 152.97 465.261 149.428C464.491 145.488 463.3 141.642 461.709 137.957C461.653 137.853 461.576 137.762 461.482 137.69C461.387 137.619 461.279 137.569 461.163 137.544C461.05 137.519 460.933 137.518 460.819 137.541C460.705 137.564 460.597 137.61 460.502 137.676L425.8 162.702C425.655 162.814 425.55 162.969 425.5 163.145C425.449 163.32 425.456 163.507 425.519 163.679C425.667 164.043 429.006 172.319 434.492 174.057C437.946 175.133 443.812 173.478 448.092 172.269C449.54 171.775 451.035 171.431 452.554 171.243C452.818 171.425 455.859 173.858 459.345 176.672C472.152 186.967 483.819 196.269 485.785 196.832C486.022 196.898 486.267 196.926 486.513 196.915ZM496.428 182.018C493.701 190.079 488.363 195.889 486.331 195.26C484.298 194.631 468.269 181.671 460.453 175.398C455.974 171.789 453.843 170.051 453.396 169.803C452.636 169.34 451.199 169.704 447.728 170.697C443.647 171.839 438.061 173.428 435.07 172.485C431.104 171.243 428.229 165.533 427.403 163.679L460.75 139.596C462.02 142.92 463.02 146.34 463.741 149.825C464.881 154.526 465.625 157.455 466.567 158.614C468.302 160.749 491.883 178.542 496.394 181.936L496.428 182.018Z" fill="#231F20"/>
<path d="M459.213 145.886C458.871 148.023 459.176 150.214 460.089 152.175C461.593 155.188 468.715 159.475 468.715 159.475L474.251 149.544L464.633 141.88L459.213 145.886Z" fill="#231F20"/>
<path d="M468.715 160.302H468.93C469.146 160.233 469.329 160.086 469.442 159.889L474.978 149.957C475.07 149.786 475.1 149.588 475.06 149.397C475.021 149.206 474.916 149.035 474.763 148.915L465.146 141.251C465 141.142 464.823 141.084 464.642 141.084C464.46 141.084 464.283 141.142 464.138 141.251L458.717 145.224C458.635 145.281 458.565 145.355 458.511 145.44C458.457 145.526 458.42 145.621 458.403 145.72C458.02 148.036 458.349 150.415 459.345 152.54C460.998 155.751 467.988 160.004 468.285 160.186C468.415 160.265 468.564 160.306 468.715 160.302ZM473.193 149.676L468.418 158.316C466.137 156.876 461.808 153.864 460.816 151.811C460.033 150.099 459.741 148.202 459.973 146.333L464.617 142.857L473.193 149.676Z" fill="#231F20"/>
<path d="M489.768 175.878C489.768 175.878 492.825 167.602 488.115 166.791C488.115 166.791 487.537 160.766 481.753 163.017C481.753 163.017 480.547 156.694 475.556 157.737C470.566 158.78 466.154 170.382 466.666 173.378C467.178 176.374 471.128 174.769 473.177 172.054C473.177 172.054 470.467 176.589 472.07 177.88C474.449 179.784 477.126 176.722 479.324 174.57C479.324 174.57 476.019 179.85 480.497 180.562C483.968 181.108 487.521 174.222 487.521 174.222L489.768 175.878Z" fill="white"/>
<path d="M480.878 181.356C483.918 181.356 486.661 177.268 487.752 175.398L489.272 176.54C489.372 176.622 489.491 176.677 489.619 176.7C489.746 176.724 489.877 176.714 489.999 176.672C490.123 176.638 490.237 176.576 490.332 176.49C490.426 176.403 490.499 176.296 490.545 176.176C490.743 175.613 492.511 170.598 490.875 167.767C490.428 166.974 489.695 166.382 488.826 166.112C488.558 164.586 487.704 163.225 486.446 162.322C485.825 161.966 485.134 161.749 484.421 161.686C483.707 161.623 482.989 161.716 482.315 161.958C481.831 160.239 480.805 158.724 479.39 157.638C478.808 157.243 478.149 156.977 477.457 156.858C476.765 156.738 476.055 156.767 475.375 156.942C469.905 158.084 465.261 170.184 465.84 173.494C465.883 174.015 466.088 174.509 466.426 174.906C466.764 175.304 467.218 175.586 467.724 175.712C468.852 175.898 470.009 175.65 470.963 175.017C470.728 175.591 470.659 176.22 470.764 176.832C470.87 177.444 471.144 178.013 471.557 178.476C473.524 180.049 475.556 179.039 477.341 177.533C477.262 178.174 477.353 178.825 477.606 179.42C477.863 179.942 478.254 180.387 478.739 180.71C479.223 181.032 479.784 181.221 480.365 181.257L480.878 181.356ZM487.488 173.362H487.306C487.187 173.39 487.076 173.443 486.98 173.518C486.883 173.592 486.803 173.685 486.744 173.792C485.901 175.447 482.91 180.098 480.597 179.701C479.39 179.502 479.159 178.973 479.076 178.807C478.564 177.682 479.589 175.596 480.002 174.967C480.105 174.793 480.143 174.588 480.11 174.388C480.076 174.188 479.974 174.006 479.82 173.875C479.668 173.738 479.471 173.662 479.266 173.662C479.062 173.662 478.865 173.738 478.713 173.875L478.25 174.338C475.87 176.771 474.069 178.393 472.565 177.185C471.971 176.705 472.747 174.272 473.854 172.418C473.952 172.237 473.978 172.025 473.928 171.825C473.877 171.625 473.754 171.451 473.583 171.337C473.411 171.223 473.203 171.178 473 171.209C472.796 171.241 472.612 171.347 472.483 171.508C472.006 172.252 471.361 172.873 470.6 173.321C469.84 173.77 468.984 174.033 468.104 174.09C467.856 174.09 467.558 173.875 467.443 173.196C466.997 170.598 471.243 159.442 475.705 158.498C476.17 158.381 476.653 158.361 477.125 158.441C477.598 158.521 478.048 158.698 478.448 158.962C479.714 160.051 480.57 161.54 480.878 163.182C480.902 163.3 480.952 163.412 481.023 163.509C481.094 163.606 481.186 163.686 481.291 163.745C481.4 163.794 481.518 163.818 481.638 163.818C481.757 163.818 481.875 163.794 481.985 163.745C482.534 163.47 483.139 163.327 483.753 163.327C484.367 163.327 484.972 163.47 485.521 163.745C486.462 164.529 487.056 165.653 487.174 166.873C487.189 167.055 487.264 167.226 487.386 167.361C487.509 167.496 487.672 167.586 487.851 167.618C488.163 167.652 488.462 167.759 488.723 167.932C488.985 168.105 489.201 168.338 489.355 168.611C490.198 170.068 489.718 172.816 489.239 174.537L487.901 173.511C487.777 173.427 487.635 173.376 487.488 173.362Z" fill="#231F20"/>
<path d="M469.194 149.66C469.194 149.66 466.633 144.694 463.51 148.799C460.386 152.904 456.503 160.749 461.345 161.809C466.187 162.868 470.268 153.93 469.194 149.66Z" fill="white"/>
<path d="M462.155 162.719C462.961 162.681 463.751 162.478 464.476 162.122C465.201 161.766 465.845 161.265 466.369 160.65C469.095 157.836 470.781 152.606 469.988 149.461C469.994 149.4 469.994 149.339 469.988 149.279C469.855 148.998 468.533 146.548 466.385 146.366C465.689 146.361 465.003 146.537 464.395 146.876C463.787 147.216 463.277 147.707 462.915 148.302C460.866 151 457.313 157.009 458.569 160.418C458.782 160.989 459.142 161.493 459.612 161.879C460.082 162.266 460.646 162.521 461.246 162.62C461.545 162.682 461.849 162.715 462.155 162.719ZM468.418 149.958C468.564 151.69 468.345 153.434 467.776 155.076C467.207 156.718 466.299 158.223 465.113 159.491C464.683 160.034 464.122 160.457 463.482 160.721C462.843 160.984 462.147 161.08 461.461 160.998C461.132 160.96 460.821 160.831 460.562 160.627C460.302 160.422 460.104 160.15 459.99 159.839C459.164 157.604 461.494 152.738 464.105 149.312C464.309 148.95 464.597 148.642 464.945 148.414C465.293 148.187 465.691 148.046 466.104 148.004C467.178 148.104 468.104 149.395 468.418 149.958Z" fill="#231F20"/>
<path d="M452.785 193.754C452.785 193.754 450.273 178.228 450.091 175.547C449.794 170.862 451.215 163.629 455.363 162.686C459.511 161.742 468.88 161.031 467.162 165.102C465.509 168.793 457.379 169.125 457.379 169.125C457.379 169.125 462.766 175.083 461.642 180.711" fill="white"/>
<path d="M452.785 194.581H452.917C453.131 194.545 453.322 194.425 453.449 194.249C453.576 194.072 453.628 193.853 453.595 193.638C453.595 193.489 451.083 178.112 450.918 175.431C450.637 170.896 452.074 164.209 455.545 163.414C459.659 162.471 465.294 162.404 466.402 163.712C466.402 163.828 466.683 164.06 466.402 164.722C465.294 167.337 459.478 168.148 457.346 168.231C457.187 168.239 457.033 168.291 456.901 168.381C456.77 168.472 456.666 168.598 456.602 168.744C456.544 168.887 456.528 169.043 456.554 169.195C456.58 169.347 456.649 169.489 456.751 169.604C456.751 169.604 461.857 175.331 460.833 180.496C460.811 180.602 460.81 180.712 460.831 180.819C460.852 180.925 460.893 181.027 460.953 181.118C461.013 181.208 461.09 181.286 461.18 181.347C461.27 181.408 461.371 181.45 461.477 181.472C461.691 181.512 461.913 181.466 462.094 181.346C462.276 181.226 462.404 181.04 462.452 180.827C463.328 176.374 460.568 171.889 458.998 169.753C461.626 169.455 466.6 168.479 467.922 165.367C468.151 164.939 468.249 164.453 468.202 163.97C468.155 163.486 467.965 163.028 467.657 162.653C465.509 160.071 457.263 161.329 455.165 161.809C450.306 162.918 448.968 170.813 449.265 175.53C449.447 178.311 451.86 193.274 451.959 193.903C451.994 194.095 452.096 194.269 452.248 194.394C452.399 194.518 452.589 194.584 452.785 194.581Z" fill="#231F20"/>
<path d="M515.497 138.206C515.497 138.206 481.786 133.24 467.575 140.722C464.006 142.643 460.572 144.806 457.296 147.193C449.53 152.738 442.176 159.078 436.508 162.504C425.287 169.29 414.678 170.366 408.052 158.399C402.367 148.153 406.168 143.585 414.827 135.111C419.107 130.923 428.047 124.104 435.83 116.424C440.415 112.177 444.347 107.274 447.497 101.874C454.438 88.9475 453.545 68.5723 453.545 68.5723L515.497 138.206Z" fill="white"/>
<path d="M421.801 168.396C426.229 168.396 431.319 166.741 436.971 163.265C440.97 160.678 444.831 157.883 448.538 154.89C451.546 152.589 454.636 150.189 457.809 147.922C461.05 145.549 464.451 143.403 467.988 141.5C481.77 134.283 515.051 139.033 515.382 139.083C515.549 139.106 515.72 139.078 515.871 139.001C516.021 138.924 516.145 138.802 516.224 138.653C516.307 138.504 516.341 138.334 516.323 138.165C516.306 137.996 516.236 137.837 516.125 137.709L454.157 68.0757C454.043 67.9506 453.894 67.8632 453.73 67.8254C453.565 67.7876 453.393 67.8012 453.236 67.8642C453.08 67.9273 452.946 68.0369 452.854 68.1783C452.761 68.3197 452.714 68.4861 452.719 68.6551C452.719 68.8537 453.463 88.9476 446.803 101.527C443.69 106.871 439.79 111.715 435.235 115.894C430.757 120.297 425.965 124.368 421.735 127.96C418.694 130.542 416.05 132.777 414.232 134.581C405.557 143.088 401.31 148.021 407.308 158.862C410.018 163.828 413.538 166.791 417.785 167.916C419.097 168.251 420.447 168.412 421.801 168.396ZM492.577 135.773C483.373 135.773 473.507 136.699 467.228 139.993C463.617 141.952 460.149 144.164 456.85 146.614C453.644 148.898 450.538 151.298 447.53 153.615C443.871 156.565 440.066 159.327 436.128 161.891C429.105 166.145 423.09 167.651 418.248 166.344C414.464 165.334 411.274 162.553 408.812 158.068C403.359 148.253 406.895 144.148 415.422 135.789C417.207 134.035 419.818 131.817 422.842 129.168C427.089 125.56 431.897 121.472 436.425 117.019C441.102 112.705 445.097 107.705 448.274 102.189C453.859 91.6786 454.438 76.4841 454.438 70.7406L513.415 137.097C506.5 136.255 499.543 135.813 492.577 135.773Z" fill="#231F20"/>
<path d="M459.213 145.886C451.446 151.414 442.011 158.796 436.541 162.438C424.065 170.929 416.38 171.525 409.01 159.988C401.425 148.137 406.201 143.519 414.86 135.044C419.14 130.857 428.08 124.037 435.863 116.357C435.863 116.357 435.963 124.716 443.762 135.243C447.587 140.414 453.024 144.159 459.213 145.886Z" fill="#231F20"/>
<path d="M421.388 169.638C425.568 169.638 430.493 167.569 436.954 163.182C439.912 161.18 444.01 158.101 448.373 154.906C452.141 152.093 456.04 149.18 459.626 146.631C459.756 146.536 459.856 146.406 459.914 146.257C459.973 146.107 459.988 145.944 459.957 145.786C459.927 145.626 459.849 145.479 459.734 145.364C459.619 145.249 459.472 145.171 459.312 145.141C453.367 143.443 448.142 139.838 444.44 134.879C436.921 124.733 436.706 116.573 436.706 116.49C436.705 116.326 436.656 116.167 436.565 116.031C436.474 115.896 436.345 115.79 436.194 115.728C436.043 115.672 435.879 115.659 435.722 115.691C435.564 115.723 435.418 115.799 435.302 115.91C430.823 120.313 426.031 124.385 421.801 127.977C418.76 130.559 416.116 132.793 414.298 134.597C405.606 143.122 400.401 148.203 408.316 160.584C411.621 165.831 415.091 168.661 419.057 169.472C419.827 169.605 420.607 169.66 421.388 169.638ZM457.346 146.2C454.14 148.517 450.736 151.05 447.431 153.516C443.101 156.826 439.003 159.839 436.062 161.792C428.741 166.758 423.585 168.611 419.371 167.734C415.852 167.022 412.761 164.424 409.688 159.574C402.483 148.335 406.779 144.131 415.323 135.773C417.207 133.919 419.818 131.701 422.842 129.152C426.709 125.842 431.104 122.2 435.202 118.211C436.347 124.625 439.055 130.658 443.085 135.773C446.688 140.601 451.657 144.234 457.346 146.2Z" fill="#231F20"/>
<path d="M525.032 135.756C517.133 142.244 500.674 135.756 484.86 121.19C476.867 113.74 469.913 105.244 464.187 95.9324C452.917 77.3613 449.811 59.8661 457.743 53.3612C467.658 45.3005 490.627 57.2178 509.218 79.96C527.808 102.702 534.881 127.695 525.032 135.756Z" fill="#FF7777"/>
<path d="M465.625 50.8784C462.788 50.7536 459.998 51.6325 457.742 53.3612C449.794 59.866 452.901 77.4275 464.171 95.9324C469.897 105.244 476.85 113.74 484.843 121.19C496.51 131.982 508.507 138.288 517.232 138.288C520.071 138.402 522.858 137.505 525.098 135.756C535.013 127.695 527.858 102.652 509.284 79.9599C494.577 62.0343 477.159 50.8784 465.625 50.8784ZM465.625 49.2232C477.936 49.2232 495.965 61.1571 510.49 79.0165C519.612 90.0896 526.321 102.189 529.378 112.915C532.551 124.137 531.378 132.777 526.073 137.047C523.553 139.015 520.426 140.039 517.232 139.944C508.045 139.944 495.866 133.538 483.802 122.399C479.713 118.603 475.892 114.527 472.367 110.2C468.891 105.955 465.711 101.476 462.849 96.7931C450.769 76.9309 448.323 59.0053 456.784 52.1032C459.304 50.1379 462.432 49.1189 465.625 49.2232Z" fill="#231F20"/>
<path d="M499.154 104.854L484.86 121.19C476.867 113.74 469.913 105.244 464.187 95.9324L484.298 84.7931L499.154 104.854Z" fill="white"/>
<path d="M487.032 98.3445C482.91 92.8247 481.649 86.7923 484.215 84.8707C486.78 82.9492 492.201 85.8661 496.322 91.3859C500.443 96.9057 501.704 102.938 499.139 104.86C496.573 106.781 491.153 103.864 487.032 98.3445Z" fill="#231F20"/>
<path d="M497.237 106.261C498.099 106.284 498.943 106.016 499.633 105.499C501.154 104.374 501.649 102.189 501.055 99.2759C500.303 96.2187 498.918 93.3539 496.989 90.8675C492.528 84.8923 486.711 81.9627 483.769 84.2468C482.249 85.3723 481.753 87.5572 482.348 90.4537C483.086 93.5147 484.46 96.3855 486.38 98.8786C489.834 103.463 494.097 106.261 497.237 106.261ZM495.585 91.8772C497.368 94.1731 498.651 96.8174 499.352 99.64C499.815 101.825 499.518 103.48 498.559 104.192C496.692 105.599 491.718 103.348 487.62 97.8524C485.837 95.5565 484.553 92.9122 483.852 90.0896C483.389 87.9048 483.687 86.2496 484.645 85.5379C486.513 84.1144 491.487 86.382 495.585 91.8772Z" fill="#231F20"/>
<path d="M479.225 175.331C479.364 175.334 479.501 175.301 479.623 175.234C479.745 175.167 479.847 175.07 479.919 174.951C481.147 173.129 482.621 171.486 484.298 170.068C484.471 169.934 484.584 169.737 484.611 169.519C484.639 169.302 484.58 169.083 484.447 168.909C484.313 168.737 484.117 168.624 483.902 168.593C483.686 168.562 483.467 168.616 483.29 168.744C481.455 170.269 479.856 172.06 478.547 174.057C478.486 174.147 478.443 174.248 478.422 174.354C478.4 174.461 478.4 174.571 478.422 174.677C478.443 174.784 478.486 174.885 478.547 174.974C478.609 175.064 478.687 175.14 478.779 175.199C478.913 175.283 479.067 175.328 479.225 175.331Z" fill="#231F20"/>
<path d="M473.16 172.882C473.344 172.883 473.523 172.821 473.667 172.707C473.811 172.592 473.912 172.432 473.954 172.253C474.743 169.846 476.299 167.764 478.382 166.327C478.472 166.266 478.55 166.188 478.609 166.098C478.669 166.007 478.711 165.905 478.732 165.798C478.752 165.692 478.752 165.582 478.73 165.475C478.709 165.368 478.666 165.267 478.605 165.177C478.545 165.087 478.467 165.009 478.376 164.949C478.285 164.889 478.184 164.848 478.077 164.827C477.971 164.806 477.861 164.807 477.754 164.828C477.648 164.85 477.547 164.893 477.457 164.953C475.024 166.609 473.223 169.042 472.351 171.856C472.305 172.068 472.344 172.29 472.457 172.475C472.571 172.66 472.752 172.794 472.962 172.849L473.16 172.882Z" fill="#231F20"/>
<path d="M487.487 175.017C487.612 175.019 487.735 174.991 487.847 174.937C487.959 174.882 488.057 174.802 488.132 174.702L489.619 172.799C489.752 172.625 489.812 172.406 489.784 172.189C489.756 171.972 489.643 171.774 489.47 171.64C489.299 171.505 489.082 171.443 488.865 171.468C488.648 171.493 488.45 171.602 488.314 171.773L486.826 173.676C486.692 173.852 486.633 174.074 486.66 174.294C486.688 174.514 486.801 174.714 486.975 174.851C487.123 174.962 487.303 175.021 487.487 175.017Z" fill="#231F20"/>
<path d="M420.016 134.945C420.21 134.944 420.398 134.874 420.545 134.746L431.93 125.163C432.099 125.02 432.204 124.816 432.223 124.596C432.242 124.375 432.172 124.157 432.03 123.988C431.887 123.819 431.684 123.713 431.463 123.695C431.243 123.676 431.025 123.746 430.856 123.888L419.487 133.488C419.401 133.556 419.33 133.64 419.279 133.736C419.227 133.832 419.195 133.937 419.186 134.046C419.177 134.155 419.19 134.264 419.224 134.368C419.259 134.471 419.315 134.566 419.388 134.647C419.463 134.741 419.559 134.817 419.668 134.869C419.776 134.92 419.896 134.946 420.016 134.945Z" fill="white"/>
<path d="M421.387 137.461C421.582 137.46 421.77 137.39 421.916 137.262L433.302 127.679C433.386 127.608 433.454 127.522 433.505 127.424C433.555 127.327 433.585 127.221 433.595 127.112C433.604 127.003 433.591 126.893 433.558 126.788C433.525 126.684 433.472 126.587 433.401 126.504C433.331 126.42 433.244 126.351 433.147 126.301C433.05 126.25 432.944 126.22 432.835 126.21C432.726 126.201 432.616 126.214 432.512 126.247C432.408 126.28 432.311 126.334 432.228 126.404L420.859 136.004C420.731 136.114 420.639 136.26 420.597 136.423C420.554 136.586 420.562 136.758 420.619 136.916C420.677 137.074 420.781 137.211 420.918 137.309C421.056 137.406 421.219 137.459 421.387 137.461Z" fill="white"/>
<path d="M423.04 140.357C423.234 140.357 423.422 140.286 423.569 140.159L434.955 130.575C435.123 130.433 435.228 130.229 435.247 130.008C435.266 129.788 435.196 129.569 435.054 129.4C434.911 129.231 434.708 129.126 434.488 129.107C434.268 129.088 434.049 129.158 433.88 129.301L422.511 138.901C422.383 139.01 422.292 139.156 422.249 139.319C422.206 139.482 422.214 139.654 422.272 139.813C422.329 139.971 422.433 140.108 422.571 140.205C422.708 140.303 422.872 140.356 423.04 140.357Z" fill="white"/>
<path d="M389.99 387.36C390.098 387.352 390.203 387.322 390.299 387.272C390.396 387.222 390.481 387.154 390.55 387.07C390.62 386.987 390.672 386.891 390.703 386.787C390.735 386.683 390.745 386.574 390.734 386.466L377.018 237.914C377.007 237.805 376.975 237.7 376.923 237.603C376.872 237.507 376.802 237.422 376.717 237.353C376.633 237.284 376.536 237.232 376.431 237.2C376.327 237.169 376.218 237.158 376.109 237.169C376 237.18 375.895 237.212 375.799 237.264C375.703 237.315 375.618 237.385 375.549 237.47C375.48 237.554 375.428 237.652 375.397 237.756C375.365 237.861 375.355 237.971 375.365 238.079L389.18 386.582C389.189 386.791 389.278 386.989 389.429 387.134C389.58 387.279 389.781 387.36 389.99 387.36Z" fill="#231F20"/>
<path d="M173.909 442.643L131.522 348.397L261.178 291.393L303.548 385.638L173.909 442.643Z" fill="white"/>
<path d="M173.909 443.487C174.024 443.511 174.142 443.511 174.256 443.487L303.895 386.417C303.999 386.374 304.093 386.311 304.173 386.232C304.252 386.152 304.315 386.057 304.357 385.953C304.44 385.74 304.44 385.504 304.357 385.291L261.971 291.045C261.874 290.843 261.703 290.686 261.494 290.606C261.285 290.526 261.054 290.529 260.847 290.615L131.208 347.619C131.104 347.662 131.01 347.726 130.931 347.807C130.852 347.887 130.789 347.982 130.748 348.087C130.706 348.192 130.686 348.305 130.689 348.417C130.691 348.53 130.716 348.642 130.762 348.745L173.132 442.991C173.198 443.141 173.307 443.269 173.445 443.357C173.584 443.446 173.745 443.491 173.909 443.487ZM302.407 385.225L174.322 441.501L132.646 348.811L260.731 292.535L302.407 385.225Z" fill="#231F20"/>
<path d="M276.711 356.292L265.243 330.769C264.658 329.338 264.363 327.805 264.374 326.258C264.385 324.712 264.703 323.183 265.309 321.76C265.914 320.338 266.796 319.049 267.902 317.971C269.008 316.892 270.318 316.044 271.754 315.475L274.877 314.102L295.682 360.397L292.559 361.771C289.728 363.124 286.479 363.308 283.514 362.283C280.55 361.258 278.106 359.106 276.711 356.292Z" fill="white"/>
<path d="M287.337 363.707C289.254 363.704 291.15 363.304 292.906 362.532L296.029 361.158C296.24 361.066 296.406 360.893 296.492 360.678C296.575 360.466 296.575 360.229 296.492 360.016L275.703 313.671C275.609 313.467 275.439 313.307 275.229 313.226C275.019 313.146 274.786 313.151 274.579 313.241L271.44 314.615C268.175 316.032 265.602 318.686 264.284 321.997C263.714 323.441 263.439 324.985 263.476 326.537C263.512 328.09 263.861 329.619 264.499 331.034L275.968 356.64C276.982 358.789 278.595 360.599 280.611 361.853C282.628 363.107 284.963 363.751 287.337 363.707ZM294.558 359.934L292.212 360.96C289.597 362.225 286.591 362.414 283.838 361.485C281.086 360.557 278.806 358.586 277.488 355.994L266.053 330.422C265.51 329.21 265.216 327.901 265.188 326.574C265.16 325.246 265.397 323.926 265.887 322.692C266.45 321.26 267.293 319.954 268.365 318.851C269.438 317.749 270.719 316.871 272.134 316.27L274.48 315.227L294.558 359.934Z" fill="#231F20"/>
<path d="M180.37 429.236C180.479 429.261 180.592 429.261 180.701 429.236L278.347 386.747C278.449 386.704 278.54 386.641 278.617 386.561C278.694 386.481 278.754 386.387 278.793 386.284C278.876 386.083 278.876 385.857 278.793 385.655L245.165 310.907C245.071 310.711 244.906 310.558 244.703 310.481C244.499 310.404 244.274 310.408 244.074 310.493L148.229 353.098C148.131 353.141 148.043 353.203 147.969 353.28C147.895 353.358 147.837 353.449 147.799 353.549C147.76 353.649 147.742 353.756 147.745 353.863C147.748 353.97 147.772 354.076 147.816 354.174L179.66 428.806C179.752 429.008 179.917 429.168 180.123 429.252L180.37 429.236ZM276.909 385.506L180.8 427.316L149.601 354.207L243.959 312.281L276.909 385.506Z" fill="#D1D3D4"/>
<path d="M265.441 392.226C265.551 392.242 265.662 392.242 265.772 392.226C265.971 392.136 266.127 391.971 266.207 391.767C266.287 391.563 266.285 391.336 266.201 391.134L233.548 316.071C233.504 315.971 233.442 315.881 233.363 315.805C233.285 315.729 233.193 315.67 233.091 315.63C232.99 315.59 232.882 315.57 232.773 315.572C232.664 315.574 232.557 315.598 232.457 315.641C232.357 315.684 232.267 315.747 232.191 315.826C232.116 315.904 232.056 315.997 232.016 316.098C231.977 316.2 231.957 316.308 231.959 316.417C231.961 316.526 231.984 316.633 232.028 316.733L264.681 391.796C264.755 391.931 264.865 392.044 265 392.12C265.134 392.196 265.287 392.233 265.441 392.226Z" fill="#D1D3D4"/>
<path d="M174.074 415.117C174.189 415.115 174.302 415.087 174.405 415.035L271.754 372C271.955 371.91 272.113 371.743 272.192 371.537C272.271 371.331 272.265 371.101 272.175 370.899C272.085 370.697 271.919 370.539 271.713 370.46C271.507 370.381 271.278 370.387 271.076 370.477L173.744 413.512C173.545 413.602 173.389 413.767 173.308 413.971C173.228 414.175 173.23 414.402 173.314 414.604C173.376 414.755 173.482 414.885 173.617 414.976C173.752 415.067 173.911 415.116 174.074 415.117Z" fill="#D1D3D4"/>
<path d="M183.791 374.731C188.749 391.779 201.407 425.148 207.653 427.813C213.9 430.477 234.358 422.483 238.737 418.775C243.116 415.068 221.633 399.972 221.633 399.972C221.633 399.972 231.747 399.972 233.465 394.759C235.184 389.545 215.122 388.767 215.122 388.767C212.313 387.112 213.139 370.659 212.974 367.895C212.082 353.909 211.437 339.906 210.826 325.903C210.115 309.765 209.702 292.799 206.827 276.877C205.174 267.392 201.869 257.379 194.07 251.751C191.962 250.14 189.452 249.144 186.815 248.871C177.941 248.242 169.943 256.104 166.622 263.619C163.399 270.885 162.953 279.045 163.069 286.99C163.598 318.521 175.347 345.186 183.791 374.731Z" fill="white"/>
<path d="M211.008 429.17C219.7 429.17 235.448 422.648 239.265 419.404C239.569 419.153 239.808 418.832 239.963 418.469C240.119 418.107 240.185 417.712 240.158 417.319C239.943 412.816 228.739 404.077 224.013 400.651C227.318 400.32 232.903 399.128 234.242 395.007C234.383 394.609 234.426 394.182 234.365 393.764C234.305 393.346 234.143 392.948 233.895 392.607C231.284 388.866 217.915 388.072 215.42 387.956C213.767 386.301 213.767 374.946 213.767 371.123C213.767 369.567 213.767 368.441 213.767 367.812C212.875 353.842 212.247 339.972 211.619 325.837L211.371 320.16C210.776 305.726 210.148 290.797 207.604 276.695C206.166 268.7 203.224 257.329 194.516 251.039C192.296 249.326 189.638 248.276 186.848 248.01C177.726 247.398 169.398 255.194 165.828 263.238C162.441 270.901 162.094 279.541 162.209 286.973C162.589 310.775 169.233 331.431 176.272 353.296C178.536 360.314 180.866 367.58 182.965 374.913C186.98 388.932 200.101 425.479 207.29 428.541C208.475 428.994 209.739 429.208 211.008 429.17ZM221.633 399.145C221.459 399.145 221.29 399.199 221.148 399.3C221.006 399.401 220.898 399.543 220.84 399.707C220.789 399.878 220.791 400.06 220.847 400.229C220.904 400.398 221.011 400.546 221.154 400.651C227.764 405.285 238.34 413.892 238.505 417.401C238.522 417.538 238.503 417.677 238.451 417.804C238.399 417.931 238.315 418.044 238.208 418.13C233.63 422.019 213.652 429.468 207.967 427.051C202.547 424.734 190.054 393.567 184.601 374.499L183.791 374.731L184.601 374.499C182.486 367.134 180.139 359.851 177.875 352.833C170.885 331.084 164.258 310.543 163.895 286.973C163.796 279.724 164.11 271.315 167.365 263.95C170.621 256.584 178.437 249.053 186.766 249.699C189.247 249.948 191.607 250.894 193.574 252.43C201.836 258.355 204.613 269.296 206.017 277.026C208.546 291.012 209.157 305.892 209.752 320.259L210 325.936C210.628 340.088 211.256 353.958 212.148 367.945C212.148 368.491 212.148 369.6 212.148 371.106C212.148 381.749 212.478 388.171 214.693 389.478C214.808 389.549 214.938 389.589 215.073 389.594C220.923 389.843 230.838 391.117 232.523 393.55C232.624 393.683 232.689 393.84 232.712 394.005C232.735 394.17 232.716 394.338 232.655 394.494C231.152 399.095 221.848 399.145 221.617 399.145H221.633Z" fill="#231F20"/>
<path d="M284.494 196.534C219.882 213.699 182.37 241.224 173.05 251.155L211.189 300.281L269.358 273.897L284.494 196.534Z" fill="#FF7777"/>
<path d="M211.19 301.042C211.304 301.065 211.422 301.065 211.537 301.042L259.31 277.357C259.413 277.322 259.507 277.266 259.586 277.192C259.665 277.119 259.727 277.029 259.769 276.929C259.811 276.829 259.831 276.721 259.828 276.613C259.824 276.505 259.798 276.399 259.751 276.301C259.703 276.204 259.636 276.118 259.553 276.049C259.47 275.98 259.373 275.929 259.268 275.901C259.164 275.872 259.055 275.866 258.948 275.883C258.841 275.9 258.74 275.94 258.649 275.999L210.859 299.685C210.681 299.774 210.544 299.93 210.479 300.119C210.414 300.308 210.426 300.514 210.512 300.695C210.586 300.806 210.687 300.896 210.805 300.957C210.924 301.018 211.056 301.048 211.19 301.042Z" fill="#231F20"/>
</svg>
